<svg xmlns="http://www.w3.org/2000/svg" xmlns:xlink="http://www.w3.org/1999/xlink" xmlns:lucid="lucid" width="1080.6" height="3102"><g transform="translate(-43.399305555555515 221)" lucid:page-tab-id="0_0"><path d="M572 86a6 6 0 0 1 6-6h150a6 6 0 0 1 6 6v110a6 6 0 0 1-6 6H578a6 6 0 0 1-6-6z" stroke="#3a414a" stroke-width="2" fill="#fff"/><use xlink:href="#a" transform="matrix(1,0,0,1,584,92) translate(17.61111111111112 42.96527777777778)"/><use xlink:href="#b" transform="matrix(1,0,0,1,584,92) translate(10.449652777777786 69.85329861111111)"/><use xlink:href="#c" transform="matrix(1,0,0,1,584,92) translate(48.64409722222223 69.85329861111111)"/><path d="M572 408a6 6 0 0 1 6-6h150a6 6 0 0 1 6 6v110a6 6 0 0 1-6 6H578a6 6 0 0 1-6-6z" stroke="#3a414a" stroke-width="2" fill="#fff"/><use xlink:href="#d" transform="matrix(1,0,0,1,584,414) translate(9.462239583333343 42.96527777777778)"/><use xlink:href="#e" transform="matrix(1,0,0,1,584,414) translate(101.97526041666666 42.96527777777778)"/><use xlink:href="#f" transform="matrix(1,0,0,1,584,414) translate(38.68858506944444 69.85329861111111)"/><path d="M572 730a6 6 0 0 1 6-6h150a6 6 0 0 1 6 6v110a6 6 0 0 1-6 6H578a6 6 0 0 1-6-6z" stroke="#3a414a" stroke-width="2" fill="#fff"/><use xlink:href="#g" transform="matrix(1,0,0,1,584,736.0000000000001) translate(23.915364583333336 42.96527777777778)"/><use xlink:href="#e" transform="matrix(1,0,0,1,584,736.0000000000001) translate(87.52213541666666 42.96527777777778)"/><use xlink:href="#h" transform="matrix(1,0,0,1,584,736.0000000000001) translate(26.893880208333343 69.85329861111111)"/><path d="M572 1052a6 6 0 0 1 6-6h150a6 6 0 0 1 6 6v110a6 6 0 0 1-6 6H578a6 6 0 0 1-6-6z" stroke="#3a414a" stroke-width="2" fill="#fff"/><use xlink:href="#i" transform="matrix(1,0,0,1,584,1058) translate(5.599392361111114 42.96527777777778)"/><use xlink:href="#j" transform="matrix(1,0,0,1,584,1058) translate(119.91145833333333 42.96527777777778)"/><use xlink:href="#k" transform="matrix(1,0,0,1,584,1058) translate(25.868489583333343 69.85329861111111)"/><path d="M648.2 1371.6a7.97 7.97 0 0 1 9.6 0l71.4 53.8a4.52 4.52 0 0 1 0 7.2l-71.4 53.8a7.97 7.97 0 0 1-9.6 0l-71.4-53.8a4.52 4.52 0 0 1 0-7.2z" stroke="#3a414a" stroke-width="2" fill="#fff"/><use xlink:href="#l" transform="matrix(1,0,0,1,584,1380.0000000000002) translate(23.866536458333343 43.63975694444444)"/><use xlink:href="#m" transform="matrix(1,0,0,1,584,1380.0000000000002) translate(8.051649305555557 70.52777777777777)"/><path d="M320 1646a6 6 0 0 1 6-6h150a6 6 0 0 1 6 6v110a6 6 0 0 1-6 6H326a6 6 0 0 1-6-6z" stroke="#3a414a" stroke-width="2" fill="#fff"/><use xlink:href="#n" transform="matrix(1,0,0,1,332,1651.9999999999998) translate(23.079861111111107 42.96527777777778)"/><use xlink:href="#o" transform="matrix(1,0,0,1,332,1651.9999999999998) translate(30.973741319444443 69.85329861111111)"/><path d="M320 1948a6 6 0 0 1 6-6h150a6 6 0 0 1 6 6v110a6 6 0 0 1-6 6H326a6 6 0 0 1-6-6z" stroke="#3a414a" stroke-width="2" fill="#fff"/><use xlink:href="#p" transform="matrix(1,0,0,1,332,1954) translate(8.501953125000007 30.71527777777778)"/><use xlink:href="#b" transform="matrix(1,0,0,1,332,1954) translate(12.153211805555557 57.603298611111114)"/><use xlink:href="#q" transform="matrix(1,0,0,1,332,1954) translate(50.34765625 57.603298611111114)"/><use xlink:href="#r" transform="matrix(1,0,0,1,332,1954) translate(53.353298611111114 84.49131944444446)"/><path d="M320 2270a6 6 0 0 1 6-6h150a6 6 0 0 1 6 6v110a6 6 0 0 1-6 6H326a6 6 0 0 1-6-6z" stroke="#3a414a" stroke-width="2" fill="#fff"/><use xlink:href="#s" transform="matrix(1,0,0,1,332,2276) translate(9.494791666666671 42.96527777777778)"/><use xlink:href="#t" transform="matrix(1,0,0,1,332,2276) translate(96.56076388888889 42.96527777777778)"/><use xlink:href="#u" transform="matrix(1,0,0,1,332,2276) translate(35.71006944444444 69.85329861111111)"/><path d="M320 2592a6 6 0 0 1 6-6h150a6 6 0 0 1 6 6v110a6 6 0 0 1-6 6H326a6 6 0 0 1-6-6z" stroke="#3a414a" stroke-width="2" fill="#fff"/><use xlink:href="#v" transform="matrix(1,0,0,1,332,2598) translate(-1.741102430555543 30.19574652777777)"/><use xlink:href="#w" transform="matrix(1,0,0,1,332,2598) translate(43.66362847222222 57.08376736111111)"/><use xlink:href="#x" transform="matrix(1,0,0,1,332,2598) translate(76.47612847222223 57.08376736111111)"/><use xlink:href="#y" transform="matrix(1,0,0,1,332,2598) translate(26.405598958333336 83.97178819444444)"/><path d="M920 1546a6 6 0 0 1 6-6h150a6 6 0 0 1 6 6v110a6 6 0 0 1-6 6H926a6 6 0 0 1-6-6z" stroke="#3a414a" stroke-width="2" fill="#fff"/><use xlink:href="#z" transform="matrix(1,0,0,1,932,1552) translate(28.195963541666664 21.52777777777778)"/><use xlink:href="#A" transform="matrix(1,0,0,1,932,1552) translate(40.120876736111114 48.415798611111114)"/><use xlink:href="#B" transform="matrix(1,0,0,1,932,1552) translate(13.194878472222229 75.30381944444446)"/><use xlink:href="#C" transform="matrix(1,0,0,1,932,1552) translate(98.35112847222221 75.30381944444446)"/><use xlink:href="#D" transform="matrix(1,0,0,1,932,1552) translate(14.947265625 102.19184027777777)"/><path d="M653.98 382.5H652v-69.75H654zm0-91.25H652V204H654z" stroke="#5e5e5e" stroke-width=".05" fill="#5e5e5e"/><path d="M653.98 204.03H652V203H654z" fill="#5e5e5e"/><path stroke="#5e5e5e" stroke-width=".05" fill="#5e5e5e"/><path d="M653 397.76l-4.63-14.26h9.26z" fill="#5e5e5e"/><path d="M653 400.92l-5.98-18.4h11.96zm-3.3-16.45l3.3 10.14 3.3-10.13z" stroke="#5e5e5e" stroke-width=".05" fill="#5e5e5e"/><use xlink:href="#E" transform="matrix(1,0,0,1,562.0451388888889,291.2447916666667) translate(0.0049999999999954525 17.22222222222222)"/><use xlink:href="#F" transform="matrix(1,0,0,1,562.0451388888889,291.2447916666667) translate(71.66298611111112 17.22222222222222)"/><use xlink:href="#G" transform="matrix(1,0,0,1,562.0451388888889,291.2447916666667) translate(117.92166666666668 17.22222222222222)"/><path d="M653.98 704.5H652v-69.75H654zm0-91.25H652V526H654z" stroke="#5e5e5e" stroke-width=".05" fill="#5e5e5e"/><path d="M653.98 526.03H652V525H654z" fill="#5e5e5e"/><path stroke="#5e5e5e" stroke-width=".05" fill="#5e5e5e"/><path d="M653 719.76l-4.63-14.26h9.26z" fill="#5e5e5e"/><path d="M653 722.92l-5.98-18.4h11.96zm-3.3-16.45l3.3 10.14 3.3-10.13z" stroke="#5e5e5e" stroke-width=".05" fill="#5e5e5e"/><use xlink:href="#H" transform="matrix(1,0,0,1,546.9366319444445,613.2447916666666) translate(0.0049999999999954525 17.22222222222222)"/><use xlink:href="#I" transform="matrix(1,0,0,1,546.9366319444445,613.2447916666666) translate(69.18034722222221 17.22222222222222)"/><use xlink:href="#J" transform="matrix(1,0,0,1,546.9366319444445,613.2447916666666) translate(140.18729166666665 17.22222222222222)"/><use xlink:href="#K" transform="matrix(1,0,0,1,546.9366319444445,613.2447916666666) translate(155.1004861111111 17.22222222222222)"/><path d="M653.98 1026.5H652v-69.75H654zm0-91.25H652V848H654z" stroke="#5e5e5e" stroke-width=".05" fill="#5e5e5e"/><path d="M653.98 848.03H652V847H654z" fill="#5e5e5e"/><path stroke="#5e5e5e" stroke-width=".05" fill="#5e5e5e"/><path d="M653 1041.76l-4.63-14.26h9.26z" fill="#5e5e5e"/><path d="M653 1044.92l-5.98-18.4h11.96zm-3.3-16.45l3.3 10.14 3.3-10.13z" stroke="#5e5e5e" stroke-width=".05" fill="#5e5e5e"/><use xlink:href="#L" transform="matrix(1,0,0,1,524.0720486111111,935.2447916666666) translate(0.0049999999999954525 17.22222222222222)"/><use xlink:href="#M" transform="matrix(1,0,0,1,524.0720486111111,935.2447916666666) translate(80.4563888888889 17.22222222222222)"/><use xlink:href="#N" transform="matrix(1,0,0,1,524.0720486111111,935.2447916666666) translate(133.19944444444445 17.22222222222222)"/><use xlink:href="#O" transform="matrix(1,0,0,1,524.0720486111111,935.2447916666666) translate(147.73069444444445 17.22222222222222)"/><use xlink:href="#P" transform="matrix(1,0,0,1,524.0720486111111,935.2447916666666) translate(181.72375 17.22222222222222)"/><path d="M653 1170v180.5" stroke="#5e5e5e" stroke-width="2" fill="none"/><path d="M653.98 1170.03H652V1169H654z" stroke="#5e5e5e" stroke-width=".05" fill="#5e5e5e"/><path d="M653 1365.77l-4.63-14.27h9.26z" stroke="#5e5e5e" stroke-width="2" fill="#5e5e5e"/><use xlink:href="#Q" transform="matrix(1,0,0,1,661,1258.2470219388351) translate(0.0049999999999954525 17.22222222222222)"/><use xlink:href="#R" transform="matrix(1,0,0,1,661,1258.2470219388351) translate(86.90604166666665 17.22222222222222)"/><use xlink:href="#S" transform="matrix(1,0,0,1,661,1258.2470219388351) translate(172.2445833333333 17.22222222222222)"/><use xlink:href="#T" transform="matrix(1,0,0,1,661,1258.2470219388351) translate(198.25152777777777 17.22222222222222)"/><use xlink:href="#J" transform="matrix(1,0,0,1,661,1258.2470219388351) translate(225.57791666666665 17.22222222222222)"/><use xlink:href="#U" transform="matrix(1,0,0,1,661,1258.2470219388351) translate(240.4911111111111 17.22222222222222)"/><use xlink:href="#V" transform="matrix(1,0,0,1,661,1258.2470219388351) translate(310.8122916666667 17.22222222222222)"/><path d="M401.98 1922.5h-1.96v-59.74h1.96zm0-81.26h-1.96V1764h1.96z" stroke="#5e5e5e" stroke-width=".05" fill="#5e5e5e"/><path d="M401.98 1764.03h-1.96V1763h1.96z" fill="#5e5e5e"/><path stroke="#5e5e5e" stroke-width=".05" fill="#5e5e5e"/><path d="M401 1937.76l-4.63-14.26h9.26z" fill="#5e5e5e"/><path d="M401 1940.92l-5.98-18.4h11.96zm-3.3-16.45l3.3 10.14 3.3-10.13z" stroke="#5e5e5e" stroke-width=".05" fill="#5e5e5e"/><g><use xlink:href="#W" transform="matrix(1,0,0,1,317.64930555555554,1841.2447916666667) translate(0.0049999999999954525 17.22222222222222)"/><use xlink:href="#X" transform="matrix(1,0,0,1,317.64930555555554,1841.2447916666667) translate(85.57791666666667 17.22222222222222)"/></g><path d="M401 2066v178.5" stroke="#5e5e5e" stroke-width="2" fill="none"/><path d="M401.98 2066.03h-1.96V2065h1.96z" stroke="#5e5e5e" stroke-width=".05" fill="#5e5e5e"/><path d="M401 2259.76l-4.63-14.26h9.26z" stroke="#5e5e5e" stroke-width="2" fill="#5e5e5e"/><path d="M401 2388v178.5" stroke="#5e5e5e" stroke-width="2" fill="none"/><path d="M401.98 2388.03h-1.96V2387h1.96z" stroke="#5e5e5e" stroke-width=".05" fill="#5e5e5e"/><path d="M401 2581.76l-4.63-14.26h9.26z" stroke="#5e5e5e" stroke-width="2" fill="#5e5e5e"/><g><use xlink:href="#Y" transform="matrix(1,0,0,1,43.399305555555515,2475.2447916666665) translate(0.0049999999999954525 17.22222222222222)"/><use xlink:href="#Z" transform="matrix(1,0,0,1,43.399305555555515,2475.2447916666665) translate(76.22027777777777 17.22222222222222)"/><use xlink:href="#aa" transform="matrix(1,0,0,1,43.399305555555515,2475.2447916666665) translate(102.08833333333332 17.22222222222222)"/><use xlink:href="#ab" transform="matrix(1,0,0,1,43.399305555555515,2475.2447916666665) translate(175.9425 17.22222222222222)"/><use xlink:href="#ac" transform="matrix(1,0,0,1,43.399305555555515,2475.2447916666665) translate(207.65256944444445 17.22222222222222)"/><use xlink:href="#ad" transform="matrix(1,0,0,1,43.399305555555515,2475.2447916666665) translate(259.0154166666667 17.22222222222222)"/><use xlink:href="#K" transform="matrix(1,0,0,1,43.399305555555515,2475.2447916666665) translate(292.57444444444445 17.22222222222222)"/></g><path d="M995.04 1513.02l1.05.1 1.06.24 1 .42.94.57.83.7.72.85.57.93.42 1 .25 1.08.08 1.06v.54H1000v-.46l-.06-.83-.18-.75-.3-.73-.42-.67-.5-.6-.6-.52-.68-.4-.73-.3-.76-.2-.84-.06H839.23v-1.95zm-341-4.24l.18.77.3.73.42.67.5.6.6.5.68.42.73.3.76.2.84.05h155.73v1.95h-155.8l-1.06-.08-1.06-.27-1-.42-.94-.56-.83-.7-.72-.84-.57-.93-.42-1.02-.25-1.06-.08-1.06V1490H654v17.96z" stroke="#5e5e5e" stroke-width=".05" fill="#5e5e5e"/><path d="M653 1489l.98-.07v1.1H652v-1.1z" fill="#5e5e5e"/><path stroke="#5e5e5e" stroke-width=".05" fill="#5e5e5e"/><path d="M1001 1535.76l-4.63-14.26h9.26z" fill="#5e5e5e"/><path d="M1001 1538.92l-5.98-18.4h11.96zm-3.3-16.45l3.3 10.14 3.3-10.13z" stroke="#5e5e5e" stroke-width=".05" fill="#5e5e5e"/><g><use xlink:href="#ae" transform="matrix(1,0,0,1,814.7734375,1503.2425613944986) translate(0.005000000000000782 17.22222222222222)"/></g><path d="M1118.1 140.1l1.06.26 1 .42.94.57.83.72.7.83.6.93.4 1 .26 1.08.07 1.06v1448.08l-.08 1.05-.26 1.06-.42 1-.58.94-.7.83-.84.7-.93.6-1 .4-1.08.26-1.06.07H1084v-1.94h32.96l.83-.07.75-.18.73-.3.67-.42.6-.5.5-.6.42-.68.3-.73.2-.76.06-.84V147.04l-.07-.83-.18-.75-.3-.73-.42-.67-.5-.6-.6-.5-.68-.42-.73-.3-.76-.2-.84-.06H753.5v-1.94h363.54z" stroke="#5e5e5e" stroke-width=".05" fill="#5e5e5e"/><path d="M1084.03 1601.97H1083v-1.94h1.03z" fill="#5e5e5e"/><path stroke="#5e5e5e" stroke-width=".05" fill="#5e5e5e"/><path d="M752.5 145.63L738.24 141l14.26-4.63z" fill="#5e5e5e"/><path d="M753.48 146.98l-18.4-5.98 18.4-5.98zm-12.1-5.98l10.15 3.3v-6.6zM518.77 1564.97H407.04l-.83.07-.75.18-.73.3-.67.4-.6.53-.5.6-.43.67-.3.73-.18.76-.06.84v50.46h-1.96v-50.54l.1-1.05.24-1.06.42-1 .58-.94.7-.84.84-.7.93-.58 1-.42 1.08-.25 1.06-.08h111.8zm135.2-6.93l-.08 1.05-.26 1.05-.42 1.02-.58.93-.7.83-.84.7-.93.58-1 .43-1.08.26-1.06.07h-111.8v-1.95h111.72l.83-.06.75-.2.73-.3.67-.4.6-.5.5-.6.43-.68.3-.73.18-.77.06-.82V1490H654z" stroke="#5e5e5e" stroke-width=".05" fill="#5e5e5e"/><path d="M653 1489l.98-.07v1.1H652v-1.1z" fill="#5e5e5e"/><path stroke="#5e5e5e" stroke-width=".05" fill="#5e5e5e"/><path d="M401 1635.76l-4.63-14.26h9.26z" fill="#5e5e5e"/><path d="M401 1638.92l-5.98-18.4h11.96zm-3.3-16.45l3.3 10.14 3.3-10.13z" stroke="#5e5e5e" stroke-width=".05" fill="#5e5e5e"/><g><use xlink:href="#af" transform="matrix(1,0,0,1,518.7708333333335,1553.2425613944986) translate(0.005000000000000782 17.22222222222222)"/></g><path d="M440 2800c22.1 0 40 17.9 40 40s-17.9 40-40 40h-80c-22.1 0-40-17.9-40-40s17.9-40 40-40z" stroke="#3a414a" stroke-width="2" fill="#fff"/><g><use xlink:href="#ag" transform="matrix(1,0,0,1,325,2805) translate(50.25499131944444 43.40277777777778)"/></g><path d="M401 2710v70.5" stroke="#5e5e5e" stroke-width="2" fill="none"/><path d="M401.98 2710.03h-1.96V2709h1.96z" stroke="#5e5e5e" stroke-width=".05" fill="#5e5e5e"/><path d="M401 2795.76l-4.63-14.26h9.26z" stroke="#5e5e5e" stroke-width="2" fill="#5e5e5e"/><path d="M692-220c22.1 0 40 17.9 40 40s-17.9 40-40 40h-80c-22.1 0-40-17.9-40-40s17.9-40 40-40z" stroke="#3a414a" stroke-width="2" fill="#fff"/><g><use xlink:href="#ah" transform="matrix(1,0,0,1,577,-215) translate(47.05946180555556 43.40277777777778)"/></g><path d="M652-138V60.5" stroke="#5e5e5e" stroke-width="2" fill="none"/><path d="M652.98-137.97H651V-139H653z" stroke="#5e5e5e" stroke-width=".05" fill="#5e5e5e"/><path d="M652 75.76l-4.63-14.26h9.26z" stroke="#5e5e5e" stroke-width="2" fill="#5e5e5e"/><defs><path d="M657 26c-323 0-524-166-541-416h195c15 169 171 246 346 246 202 0 356-106 356-265 5-203-294-238-475-293-239-73-380-191-380-389 0-252 224-419 512-419 294 0 499 171 508 396H992c-17-145-151-228-328-228-193 0-321 102-321 242 0 156 175 211 284 241l149 41c160 44 422 134 422 412 0 244-197 432-541 432" id="ai"/><path d="M628 24c-324 0-524-230-524-574 0-343 198-582 503-582 237 0 487 146 487 559v75H286c9 234 145 362 343 362 132 0 231-58 273-172l174 48C1024-91 857 24 628 24zM287-650h624c-17-190-120-322-304-322-192 0-309 151-320 322" id="aj"/><path d="M338-1490V0H158v-1490h180" id="ak"/><path d="M613 24c-304 0-509-231-509-576 0-350 205-580 509-580 216 0 392 114 453 309l-173 49c-33-115-133-197-280-197-223 0-326 196-326 419 0 220 103 415 326 415 150 0 252-85 285-206l172 49C1010-95 832 24 613 24" id="al"/><path d="M158 0v-1118h180V0H158zm91-1301c-68 0-125-53-125-119s57-119 125-119c69 0 126 53 126 119s-57 119-126 119" id="am"/><path d="M613 24c-304 0-509-231-509-576 0-350 205-580 509-580 305 0 511 230 511 580 0 345-206 576-511 576zm0-161c226 0 329-195 329-415 0-222-103-419-329-419-223 0-326 196-326 419 0 220 103 415 326 415zm-79-1127l140-294h201l-194 294H534" id="an"/><path d="M338-670V0H158v-1118h173l1 207c72-158 192-221 342-221 226 0 378 139 378 422V0H872v-695c0-172-96-275-252-275-161 0-282 109-282 300" id="ao"/><g id="a"><use transform="matrix(0.010850694444444444,0,0,0.010850694444444444,0,0)" xlink:href="#ai"/><use transform="matrix(0.010850694444444444,0,0,0.010850694444444444,14.2578125,0)" xlink:href="#aj"/><use transform="matrix(0.010850694444444444,0,0,0.010850694444444444,27.213541666666664,0)" xlink:href="#ak"/><use transform="matrix(0.010850694444444444,0,0,0.010850694444444444,32.59548611111111,0)" xlink:href="#aj"/><use transform="matrix(0.010850694444444444,0,0,0.010850694444444444,45.55121527777778,0)" xlink:href="#al"/><use transform="matrix(0.010850694444444444,0,0,0.010850694444444444,58.24652777777778,0)" xlink:href="#al"/><use transform="matrix(0.010850694444444444,0,0,0.010850694444444444,70.94184027777777,0)" xlink:href="#am"/><use transform="matrix(0.010850694444444444,0,0,0.010850694444444444,76.32378472222221,0)" xlink:href="#an"/><use transform="matrix(0.010850694444444444,0,0,0.010850694444444444,89.64843749999997,0)" xlink:href="#ao"/></g><path d="M577 24c-279 0-473-224-473-580 0-354 195-576 474-576 218 0 287 134 324 193h14v-551h180V0H922v-173h-20C865-111 790 24 577 24zm27-161c203 0 314-172 314-421 0-247-108-413-314-413-212 0-317 181-317 413 0 235 108 421 317 421" id="ap"/><g id="b"><use transform="matrix(0.010850694444444444,0,0,0.010850694444444444,0,0)" xlink:href="#ap"/><use transform="matrix(0.010850694444444444,0,0,0.010850694444444444,13.606770833333332,0)" xlink:href="#aj"/><use transform="matrix(0.010850694444444444,0,0,0.010850694444444444,26.5625,0)" xlink:href="#ak"/></g><path d="M52 0l541-1490h220L1361 0h-200l-149-416H398L254 0H52zm404-582h497c-103-290-145-390-251-756-108 377-145 460-246 756" id="aq"/><path d="M538 24C308 24 148-78 108-271l171-41c32 123 123 178 257 178 156 0 256-77 256-169 0-77-54-128-164-154l-186-44c-203-48-300-148-300-305 0-192 176-326 414-326 230 0 351 112 402 269l-163 42c-31-80-94-158-238-158-133 0-233 69-233 162 0 83 57 129 188 160l169 40c203 48 298 149 298 302 0 196-179 339-441 339" id="ar"/><path d="M598-1118v154H368v674c0 100 37 144 132 144 23 0 62-6 92-12L629-6c-37 13-88 20-134 20-193 0-307-107-307-290v-688H20v-154h168v-266h180v266h230" id="as"/><path d="M613 24c-304 0-509-231-509-576 0-350 205-580 509-580 305 0 511 230 511 580 0 345-206 576-511 576zm0-161c226 0 329-195 329-415 0-222-103-419-329-419-223 0-326 196-326 419 0 220 103 415 326 415" id="at"/><g id="c"><use transform="matrix(0.010850694444444444,0,0,0.010850694444444444,0,0)" xlink:href="#aq"/><use transform="matrix(0.010850694444444444,0,0,0.010850694444444444,15.33203125,0)" xlink:href="#ar"/><use transform="matrix(0.010850694444444444,0,0,0.010850694444444444,27.061631944444443,0)" xlink:href="#am"/><use transform="matrix(0.010850694444444444,0,0,0.010850694444444444,32.443576388888886,0)" xlink:href="#aj"/><use transform="matrix(0.010850694444444444,0,0,0.010850694444444444,45.39930555555556,0)" xlink:href="#ao"/><use transform="matrix(0.010850694444444444,0,0,0.010850694444444444,58.52864583333333,0)" xlink:href="#as"/><use transform="matrix(0.010850694444444444,0,0,0.010850694444444444,65.58159722222221,0)" xlink:href="#at"/></g><path d="M180 0v-1490h510c348 0 508 194 508 460 0 198-88 351-276 417L1256 0h-220L726-579c-117 2-238 0-356 1V0H180zm190-747h312c235 0 327-108 327-283 0-177-92-293-329-293H370v576" id="au"/><path d="M611 442c-248 0-391-105-460-228l146-94c47 65 117 165 314 165 178 0 307-82 307-266v-224h-17C863-141 792-18 576-18c-268 0-472-195-472-546 0-346 197-568 476-568 216 0 288 133 326 193h17v-179h175V29c0 289-215 413-487 413zm-5-620c203 0 314-146 314-390 0-237-108-403-314-403-213 0-319 180-319 403 0 230 109 390 319 390" id="av"/><path d="M158 0v-1118h174v172h12c41-113 157-188 290-188 26 0 70 2 91 3v181c-11-2-60-10-108-10-161 0-279 109-279 260V0H158" id="aw"/><g id="d"><use transform="matrix(0.010850694444444444,0,0,0.010850694444444444,0,0)" xlink:href="#au"/><use transform="matrix(0.010850694444444444,0,0,0.010850694444444444,13.975694444444445,0)" xlink:href="#aj"/><use transform="matrix(0.010850694444444444,0,0,0.010850694444444444,26.931423611111104,0)" xlink:href="#av"/><use transform="matrix(0.010850694444444444,0,0,0.010850694444444444,40.55989583333333,0)" xlink:href="#am"/><use transform="matrix(0.010850694444444444,0,0,0.010850694444444444,45.94184027777778,0)" xlink:href="#ar"/><use transform="matrix(0.010850694444444444,0,0,0.010850694444444444,57.67144097222221,0)" xlink:href="#as"/><use transform="matrix(0.010850694444444444,0,0,0.010850694444444444,64.94140624999999,0)" xlink:href="#aw"/><use transform="matrix(0.010850694444444444,0,0,0.010850694444444444,72.93836805555554,0)" xlink:href="#at"/></g><g id="e"><use transform="matrix(0.010850694444444444,0,0,0.010850694444444444,0,0)" xlink:href="#ap"/><use transform="matrix(0.010850694444444444,0,0,0.010850694444444444,13.606770833333332,0)" xlink:href="#aj"/></g><path d="M645 0H180v-1490h484c435 0 692 280 692 742 0 466-257 748-711 748zM370-168h263c363 0 539-218 539-580 0-358-176-574-521-574H370v1154" id="ax"/><path d="M471 26C259 26 90-98 90-318c0-256 228-303 435-329 202-27 287-16 287-108 0-139-79-219-234-219-161 0-248 86-283 164l-173-57c86-203 278-265 451-265 150 0 419 46 419 395V0H815v-152h-12C765-73 660 26 471 26zm31-159c199 0 310-134 310-271v-155c-30 35-226 55-295 64-131 17-246 59-246 186 0 116 97 176 231 176" id="ay"/><g id="f"><use transform="matrix(0.010850694444444444,0,0,0.010850694444444444,0,0)" xlink:href="#ax"/><use transform="matrix(0.010850694444444444,0,0,0.010850694444444444,16.03732638888889,0)" xlink:href="#ay"/><use transform="matrix(0.010850694444444444,0,0,0.010850694444444444,28.515625,0)" xlink:href="#as"/><use transform="matrix(0.010850694444444444,0,0,0.010850694444444444,35.568576388888886,0)" xlink:href="#at"/><use transform="matrix(0.010850694444444444,0,0,0.010850694444444444,48.893229166666664,0)" xlink:href="#ar"/></g><path d="M180 0v-1490h908v168H370v486h669v168H370v500h727V0H180" id="az"/><path d="M481 0L54-1118h197c107 314 236 620 325 951 87-331 217-637 324-951h197L670 0H481" id="aA"/><path d="M158 0v-1118h180V0H158zm12-1264l140-294h201l-194 294H170" id="aB"/><g id="g"><use transform="matrix(0.010850694444444444,0,0,0.010850694444444444,0,0)" xlink:href="#az"/><use transform="matrix(0.010850694444444444,0,0,0.010850694444444444,13.35720486111111,0)" xlink:href="#ao"/><use transform="matrix(0.010850694444444444,0,0,0.010850694444444444,26.161024305555554,0)" xlink:href="#aA"/><use transform="matrix(0.010850694444444444,0,0,0.010850694444444444,38.65017361111111,0)" xlink:href="#aB"/><use transform="matrix(0.010850694444444444,0,0,0.010850694444444444,44.03211805555555,0)" xlink:href="#at"/></g><path d="M180 0v-1490h510c348 0 508 209 508 474 0 266-160 477-507 477H370V0H180zm190-706h312c236 0 327-133 327-310 0-176-91-307-329-307H370v617" id="aC"/><g id="h"><use transform="matrix(0.010850694444444444,0,0,0.010850694444444444,0,0)" xlink:href="#aC"/><use transform="matrix(0.010850694444444444,0,0,0.010850694444444444,14.073350694444445,0)" xlink:href="#aj"/><use transform="matrix(0.010850694444444444,0,0,0.010850694444444444,27.029079861111104,0)" xlink:href="#as"/><use transform="matrix(0.010850694444444444,0,0,0.010850694444444444,34.299045138888886,0)" xlink:href="#am"/><use transform="matrix(0.010850694444444444,0,0,0.010850694444444444,39.68098958333333,0)" xlink:href="#al"/><use transform="matrix(0.010850694444444444,0,0,0.010850694444444444,52.37630208333333,0)" xlink:href="#am"/><use transform="matrix(0.010850694444444444,0,0,0.010850694444444444,57.75824652777778,0)" xlink:href="#an"/><use transform="matrix(0.010850694444444444,0,0,0.010850694444444444,71.08289930555554,0)" xlink:href="#ao"/></g><path d="M600 0L52-1490h200c166 485 304 806 458 1336 156-533 285-846 449-1336h202L819 0H600" id="aD"/><g id="i"><use transform="matrix(0.010850694444444444,0,0,0.010850694444444444,0,0)" xlink:href="#aD"/><use transform="matrix(0.010850694444444444,0,0,0.010850694444444444,14.20355902777778,0)" xlink:href="#ay"/><use transform="matrix(0.010850694444444444,0,0,0.010850694444444444,26.68185763888889,0)" xlink:href="#ak"/><use transform="matrix(0.010850694444444444,0,0,0.010850694444444444,32.063802083333336,0)" xlink:href="#am"/><use transform="matrix(0.010850694444444444,0,0,0.010850694444444444,37.44574652777778,0)" xlink:href="#ap"/><use transform="matrix(0.010850694444444444,0,0,0.010850694444444444,51.05251736111112,0)" xlink:href="#ay"/><use transform="matrix(0.010850694444444444,0,0,0.010850694444444444,63.53081597222223,0)" xlink:href="#al"/><use transform="matrix(0.010850694444444444,0,0,0.010850694444444444,76.22612847222223,0)" xlink:href="#am"/><use transform="matrix(0.010850694444444444,0,0,0.010850694444444444,81.60807291666667,0)" xlink:href="#an"/><use transform="matrix(0.010850694444444444,0,0,0.010850694444444444,94.93272569444444,0)" xlink:href="#ao"/></g><path d="M140 405l46-156c120 36 205 19 263-150l32-93L54-1118h197c107 313 237 620 324 950 87-331 219-637 326-950h196L606 167c-68 178-176 259-334 259-64 0-113-12-132-21" id="aE"/><use transform="matrix(0.010850694444444444,0,0,0.010850694444444444,0,0)" xlink:href="#aE" id="j"/><g id="k"><use transform="matrix(0.010850694444444444,0,0,0.010850694444444444,0,0)" xlink:href="#au"/><use transform="matrix(0.010850694444444444,0,0,0.010850694444444444,13.975694444444445,0)" xlink:href="#aj"/><use transform="matrix(0.010850694444444444,0,0,0.010850694444444444,26.931423611111104,0)" xlink:href="#av"/><use transform="matrix(0.010850694444444444,0,0,0.010850694444444444,40.55989583333333,0)" xlink:href="#am"/><use transform="matrix(0.010850694444444444,0,0,0.010850694444444444,45.94184027777778,0)" xlink:href="#ar"/><use transform="matrix(0.010850694444444444,0,0,0.010850694444444444,57.67144097222221,0)" xlink:href="#as"/><use transform="matrix(0.010850694444444444,0,0,0.010850694444444444,64.94140624999999,0)" xlink:href="#aw"/><use transform="matrix(0.010850694444444444,0,0,0.010850694444444444,72.93836805555554,0)" xlink:href="#at"/></g><path d="M664-669c3 277-82 343-222 425-88 53-156 134-156 250 0 139 108 227 243 227 118 0 235-70 246-236h190c-10 251-200 395-436 395-259 0-427-165-427-393 0-161 74-273 203-352 132-80 180-132 178-316h181zm-93-462c75 0 135 60 135 134 0 75-60 135-135 135-74 0-134-60-134-135 0-74 60-134 134-134" id="aF"/><g id="l"><use transform="matrix(0.010850694444444444,0,0,0.010850694444444444,0,0)" xlink:href="#aF"/><use transform="matrix(0.010850694444444444,0,0,0.010850694444444444,11.360677083333332,0)" xlink:href="#aq"/><use transform="matrix(0.010850694444444444,0,0,0.010850694444444444,26.692708333333332,0)" xlink:href="#ar"/><use transform="matrix(0.010850694444444444,0,0,0.010850694444444444,38.42230902777778,0)" xlink:href="#am"/><use transform="matrix(0.010850694444444444,0,0,0.010850694444444444,43.80425347222222,0)" xlink:href="#aj"/><use transform="matrix(0.010850694444444444,0,0,0.010850694444444444,56.759982638888886,0)" xlink:href="#ao"/><use transform="matrix(0.010850694444444444,0,0,0.010850694444444444,69.88932291666666,0)" xlink:href="#as"/><use transform="matrix(0.010850694444444444,0,0,0.010850694444444444,76.94227430555554,0)" xlink:href="#at"/></g><path d="M158 418v-1536h174v179h20c37-59 106-193 324-193 279 0 474 222 474 576 0 356-194 580-473 580-213 0-288-135-325-197h-14v591H158zm492-555c209 0 317-186 317-421 0-232-105-413-317-413-206 0-314 166-314 413 0 249 111 421 314 421" id="aG"/><path d="M677 24c-213 0-288-135-325-197h-20V0H158v-1490h180v551h14c37-59 106-193 324-193 279 0 474 222 474 576 0 356-194 580-473 580zm-27-161c209 0 317-186 317-421 0-232-105-413-317-413-206 0-314 166-314 413 0 249 111 421 314 421" id="aH"/><path d="M383-449c-3-277 82-343 222-425 88-53 156-134 156-250 0-139-108-227-243-227-118 0-235 70-246 236H82c10-251 200-395 436-395 259 0 427 165 427 393 0 161-74 273-203 352-132 80-180 132-178 316H383zm93 462c-75 0-135-60-135-134 0-75 60-135 135-135 74 0 134 60 134 135 0 74-60 134-134 134" id="aI"/><g id="m"><use transform="matrix(0.010850694444444444,0,0,0.010850694444444444,0,0)" xlink:href="#ax"/><use transform="matrix(0.010850694444444444,0,0,0.010850694444444444,16.03732638888889,0)" xlink:href="#am"/><use transform="matrix(0.010850694444444444,0,0,0.010850694444444444,21.419270833333336,0)" xlink:href="#ar"/><use transform="matrix(0.010850694444444444,0,0,0.010850694444444444,33.14887152777778,0)" xlink:href="#aG"/><use transform="matrix(0.010850694444444444,0,0,0.010850694444444444,46.75564236111111,0)" xlink:href="#at"/><use transform="matrix(0.010850694444444444,0,0,0.010850694444444444,60.0802951388889,0)" xlink:href="#ao"/><use transform="matrix(0.010850694444444444,0,0,0.010850694444444444,73.20963541666667,0)" xlink:href="#am"/><use transform="matrix(0.010850694444444444,0,0,0.010850694444444444,78.59157986111111,0)" xlink:href="#aH"/><use transform="matrix(0.010850694444444444,0,0,0.010850694444444444,92.19835069444444,0)" xlink:href="#ak"/><use transform="matrix(0.010850694444444444,0,0,0.010850694444444444,97.58029513888889,0)" xlink:href="#aj"/><use transform="matrix(0.010850694444444444,0,0,0.010850694444444444,110.53602430555556,0)" xlink:href="#aI"/></g><path d="M783 20c-382 0-661-292-661-764 0-473 279-766 661-766 302 0 548 182 601 489h-190c-42-204-217-313-411-313-268 0-476 208-476 590 0 381 209 588 476 588 195 0 369-110 411-313h190c-52 303-296 489-601 489" id="aJ"/><path d="M158 0v-1118h175l1 205c55-151 181-225 313-225 147 0 245 90 285 228 53-141 190-228 352-228 194 0 352 125 352 384V0h-181v-749c0-161-105-225-225-225-151 0-243 103-243 244V0H807v-767c0-124-93-207-219-207-131 0-250 92-250 270V0H158" id="aK"/><g id="n"><use transform="matrix(0.010850694444444444,0,0,0.010850694444444444,0,0)" xlink:href="#aJ"/><use transform="matrix(0.010850694444444444,0,0,0.010850694444444444,16.23263888888889,0)" xlink:href="#at"/><use transform="matrix(0.010850694444444444,0,0,0.010850694444444444,29.557291666666664,0)" xlink:href="#aK"/><use transform="matrix(0.010850694444444444,0,0,0.010850694444444444,49.0234375,0)" xlink:href="#aG"/><use transform="matrix(0.010850694444444444,0,0,0.010850694444444444,62.63020833333333,0)" xlink:href="#aw"/><use transform="matrix(0.010850694444444444,0,0,0.010850694444444444,70.99609375,0)" xlink:href="#ay"/><use transform="matrix(0.010850694444444444,0,0,0.010850694444444444,83.47439236111111,0)" xlink:href="#aw"/></g><g id="o"><use transform="matrix(0.010850694444444444,0,0,0.010850694444444444,0,0)" xlink:href="#ay"/><use transform="matrix(0.010850694444444444,0,0,0.010850694444444444,12.47829861111111,0)" xlink:href="#ar"/><use transform="matrix(0.010850694444444444,0,0,0.010850694444444444,24.207899305555554,0)" xlink:href="#am"/><use transform="matrix(0.010850694444444444,0,0,0.010850694444444444,29.58984375,0)" xlink:href="#aj"/><use transform="matrix(0.010850694444444444,0,0,0.010850694444444444,42.545572916666664,0)" xlink:href="#ao"/><use transform="matrix(0.010850694444444444,0,0,0.010850694444444444,55.67491319444444,0)" xlink:href="#as"/><use transform="matrix(0.010850694444444444,0,0,0.010850694444444444,62.72786458333333,0)" xlink:href="#at"/></g><path d="M789 20c-398 0-667-293-667-764 0-473 273-766 655-766 315 0 558 198 612 487h-196c-61-191-204-311-415-311-262 0-471 207-471 590 0 380 208 588 482 588 249 0 420-165 425-427H828v-166h572v163c0 370-256 606-611 606" id="aL"/><g id="p"><use transform="matrix(0.010850694444444444,0,0,0.010850694444444444,0,0)" xlink:href="#aL"/><use transform="matrix(0.010850694444444444,0,0,0.010850694444444444,16.57986111111111,0)" xlink:href="#aj"/><use transform="matrix(0.010850694444444444,0,0,0.010850694444444444,29.535590277777775,0)" xlink:href="#ao"/><use transform="matrix(0.010850694444444444,0,0,0.010850694444444444,42.66493055555556,0)" xlink:href="#aj"/><use transform="matrix(0.010850694444444444,0,0,0.010850694444444444,55.62065972222222,0)" xlink:href="#aw"/><use transform="matrix(0.010850694444444444,0,0,0.010850694444444444,63.986545138888886,0)" xlink:href="#ay"/><use transform="matrix(0.010850694444444444,0,0,0.010850694444444444,76.46484375,0)" xlink:href="#al"/><use transform="matrix(0.010850694444444444,0,0,0.010850694444444444,89.16015625,0)" xlink:href="#am"/><use transform="matrix(0.010850694444444444,0,0,0.010850694444444444,94.54210069444444,0)" xlink:href="#an"/><use transform="matrix(0.010850694444444444,0,0,0.010850694444444444,107.86675347222221,0)" xlink:href="#ao"/></g><g id="q"><use transform="matrix(0.010850694444444444,0,0,0.010850694444444444,0,0)" xlink:href="#aJ"/><use transform="matrix(0.010850694444444444,0,0,0.010850694444444444,16.23263888888889,0)" xlink:href="#an"/><use transform="matrix(0.010850694444444444,0,0,0.010850694444444444,29.557291666666664,0)" xlink:href="#ap"/><use transform="matrix(0.010850694444444444,0,0,0.010850694444444444,43.1640625,0)" xlink:href="#am"/><use transform="matrix(0.010850694444444444,0,0,0.010850694444444444,48.54600694444444,0)" xlink:href="#av"/><use transform="matrix(0.010850694444444444,0,0,0.010850694444444444,62.174479166666664,0)" xlink:href="#at"/></g><path d="M784 20c-382 0-662-292-662-764 0-473 280-766 662-766s660 293 660 766c0 282-99 499-260 629l192 255h-198L1049-33C969 2 880 20 784 20zm-62-486h198l156 205c112-98 183-261 183-483 0-383-209-590-475-590-268 0-477 208-477 590 0 380 209 588 477 588 54 0 106-9 154-25" id="aM"/><g id="r"><use transform="matrix(0.010850694444444444,0,0,0.010850694444444444,0,0)" xlink:href="#aM"/><use transform="matrix(0.010850694444444444,0,0,0.010850694444444444,16.9921875,0)" xlink:href="#au"/></g><g id="s"><use transform="matrix(0.010850694444444444,0,0,0.010850694444444444,0,0)" xlink:href="#az"/><use transform="matrix(0.010850694444444444,0,0,0.010850694444444444,13.35720486111111,0)" xlink:href="#ao"/><use transform="matrix(0.010850694444444444,0,0,0.010850694444444444,26.48654513888889,0)" xlink:href="#as"/><use transform="matrix(0.010850694444444444,0,0,0.010850694444444444,33.756510416666664,0)" xlink:href="#aw"/><use transform="matrix(0.010850694444444444,0,0,0.010850694444444444,41.753472222222214,0)" xlink:href="#aj"/><use transform="matrix(0.010850694444444444,0,0,0.010850694444444444,54.70920138888888,0)" xlink:href="#av"/><use transform="matrix(0.010850694444444444,0,0,0.010850694444444444,68.3376736111111,0)" xlink:href="#ay"/></g><g id="t"><use transform="matrix(0.010850694444444444,0,0,0.010850694444444444,0,0)" xlink:href="#ap"/><use transform="matrix(0.010850694444444444,0,0,0.010850694444444444,13.606770833333332,0)" xlink:href="#aj"/><use transform="matrix(0.010850694444444444,0,0,0.010850694444444444,26.5625,0)" xlink:href="#ak"/></g><path d="M180 0v-1490h528c311 0 458 177 458 395 0 191-114 278-244 313v14c139 9 302 137 302 371 0 225-148 397-499 397H180zm190-168h350c232 0 321-102 321-231 0-149-120-277-311-277H370v508zm0-668h328c160 0 286-101 286-255 0-129-87-231-280-231H370v486" id="aN"/><g id="u"><use transform="matrix(0.010850694444444444,0,0,0.010850694444444444,0,0)" xlink:href="#aN"/><use transform="matrix(0.010850694444444444,0,0,0.010850694444444444,14.539930555555555,0)" xlink:href="#at"/><use transform="matrix(0.010850694444444444,0,0,0.010850694444444444,27.864583333333332,0)" xlink:href="#ak"/><use transform="matrix(0.010850694444444444,0,0,0.010850694444444444,33.24652777777778,0)" xlink:href="#aj"/><use transform="matrix(0.010850694444444444,0,0,0.010850694444444444,46.20225694444444,0)" xlink:href="#as"/><use transform="matrix(0.010850694444444444,0,0,0.010850694444444444,53.25520833333333,0)" xlink:href="#at"/></g><path d="M678-1118v154H420V0H240v-964H20v-154h220v-149c0-194 155-293 318-293 85 0 141 18 168 30l-50 154c-19-6-47-17-97-17-111 0-159 58-159 166v109h258" id="aO"/><g id="v"><use transform="matrix(0.010850694444444444,0,0,0.010850694444444444,0,0)" xlink:href="#aJ"/><use transform="matrix(0.010850694444444444,0,0,0.010850694444444444,16.23263888888889,0)" xlink:href="#at"/><use transform="matrix(0.010850694444444444,0,0,0.010850694444444444,29.557291666666664,0)" xlink:href="#ao"/><use transform="matrix(0.010850694444444444,0,0,0.010850694444444444,42.68663194444444,0)" xlink:href="#aO"/><use transform="matrix(0.010850694444444444,0,0,0.010850694444444444,50.91145833333333,0)" xlink:href="#am"/><use transform="matrix(0.010850694444444444,0,0,0.010850694444444444,56.29340277777778,0)" xlink:href="#aw"/><use transform="matrix(0.010850694444444444,0,0,0.010850694444444444,65.00651041666666,0)" xlink:href="#aK"/><use transform="matrix(0.010850694444444444,0,0,0.010850694444444444,84.47265624999999,0)" xlink:href="#ay"/><use transform="matrix(0.010850694444444444,0,0,0.010850694444444444,96.95095486111111,0)" xlink:href="#al"/><use transform="matrix(0.010850694444444444,0,0,0.010850694444444444,109.64626736111111,0)" xlink:href="#am"/><use transform="matrix(0.010850694444444444,0,0,0.010850694444444444,115.02821180555556,0)" xlink:href="#an"/><use transform="matrix(0.010850694444444444,0,0,0.010850694444444444,128.35286458333331,0)" xlink:href="#ao"/></g><g id="w"><use transform="matrix(0.010850694444444444,0,0,0.010850694444444444,0,0)" xlink:href="#ap"/><use transform="matrix(0.010850694444444444,0,0,0.010850694444444444,13.606770833333332,0)" xlink:href="#aj"/></g><g id="x"><use transform="matrix(0.010850694444444444,0,0,0.010850694444444444,0,0)" xlink:href="#ak"/><use transform="matrix(0.010850694444444444,0,0,0.010850694444444444,5.381944444444445,0)" xlink:href="#ay"/></g><g id="y"><use transform="matrix(0.010850694444444444,0,0,0.010850694444444444,0,0)" xlink:href="#au"/><use transform="matrix(0.010850694444444444,0,0,0.010850694444444444,13.975694444444445,0)" xlink:href="#aj"/><use transform="matrix(0.010850694444444444,0,0,0.010850694444444444,26.931423611111104,0)" xlink:href="#ar"/><use transform="matrix(0.010850694444444444,0,0,0.010850694444444444,38.66102430555555,0)" xlink:href="#aj"/><use transform="matrix(0.010850694444444444,0,0,0.010850694444444444,51.61675347222221,0)" xlink:href="#aw"/><use transform="matrix(0.010850694444444444,0,0,0.010850694444444444,60.3298611111111,0)" xlink:href="#aA"/><use transform="matrix(0.010850694444444444,0,0,0.010850694444444444,72.71050347222221,0)" xlink:href="#ay"/></g><path d="M180 0v-1490h270l367 940c28 72 75 218 110 339 35-117 81-264 110-339l362-940h271V0h-187c2-448-5-837 7-1287-157 497-311 829-483 1287H842C666-458 514-784 354-1284c12 438 5 843 7 1284H180" id="aP"/><g id="z"><use transform="matrix(0.010850694444444444,0,0,0.010850694444444444,0,0)" xlink:href="#aP"/><use transform="matrix(0.010850694444444444,0,0,0.010850694444444444,20.07378472222222,0)" xlink:href="#at"/><use transform="matrix(0.010850694444444444,0,0,0.010850694444444444,33.3984375,0)" xlink:href="#ar"/><use transform="matrix(0.010850694444444444,0,0,0.010850694444444444,45.12803819444444,0)" xlink:href="#as"/><use transform="matrix(0.010850694444444444,0,0,0.010850694444444444,52.39800347222222,0)" xlink:href="#aw"/><use transform="matrix(0.010850694444444444,0,0,0.010850694444444444,60.763888888888886,0)" xlink:href="#ay"/><use transform="matrix(0.010850694444444444,0,0,0.010850694444444444,73.2421875,0)" xlink:href="#aw"/></g><path d="M295 13c-75 0-135-60-135-135s60-135 135-135 135 60 135 135S370 13 295 13zm0-809c-75 0-135-60-135-135s60-135 135-135 135 60 135 135-60 135-135 135" id="aQ"/><g id="A"><use transform="matrix(0.010850694444444444,0,0,0.010850694444444444,0,0)" xlink:href="#aj"/><use transform="matrix(0.010850694444444444,0,0,0.010850694444444444,12.955729166666666,0)" xlink:href="#aw"/><use transform="matrix(0.010850694444444444,0,0,0.010850694444444444,21.668836805555554,0)" xlink:href="#aw"/><use transform="matrix(0.010850694444444444,0,0,0.010850694444444444,29.665798611111104,0)" xlink:href="#at"/><use transform="matrix(0.010850694444444444,0,0,0.010850694444444444,42.990451388888886,0)" xlink:href="#aw"/><use transform="matrix(0.010850694444444444,0,0,0.010850694444444444,51.35633680555556,0)" xlink:href="#aQ"/></g><g id="B"><use transform="matrix(0.010850694444444444,0,0,0.010850694444444444,0,0)" xlink:href="#aq"/><use transform="matrix(0.010850694444444444,0,0,0.010850694444444444,15.33203125,0)" xlink:href="#ar"/><use transform="matrix(0.010850694444444444,0,0,0.010850694444444444,27.061631944444443,0)" xlink:href="#am"/><use transform="matrix(0.010850694444444444,0,0,0.010850694444444444,32.443576388888886,0)" xlink:href="#aj"/><use transform="matrix(0.010850694444444444,0,0,0.010850694444444444,45.39930555555556,0)" xlink:href="#ao"/><use transform="matrix(0.010850694444444444,0,0,0.010850694444444444,58.52864583333333,0)" xlink:href="#as"/><use transform="matrix(0.010850694444444444,0,0,0.010850694444444444,65.58159722222221,0)" xlink:href="#at"/></g><g id="C"><use transform="matrix(0.010850694444444444,0,0,0.010850694444444444,0,0)" xlink:href="#ao"/><use transform="matrix(0.010850694444444444,0,0,0.010850694444444444,13.129340277777777,0)" xlink:href="#at"/></g><g id="D"><use transform="matrix(0.010850694444444444,0,0,0.010850694444444444,0,0)" xlink:href="#ap"/><use transform="matrix(0.010850694444444444,0,0,0.010850694444444444,13.606770833333332,0)" xlink:href="#am"/><use transform="matrix(0.010850694444444444,0,0,0.010850694444444444,18.98871527777778,0)" xlink:href="#ar"/><use transform="matrix(0.010850694444444444,0,0,0.010850694444444444,30.71831597222222,0)" xlink:href="#aG"/><use transform="matrix(0.010850694444444444,0,0,0.010850694444444444,44.32508680555556,0)" xlink:href="#at"/><use transform="matrix(0.010850694444444444,0,0,0.010850694444444444,57.64973958333333,0)" xlink:href="#ao"/><use transform="matrix(0.010850694444444444,0,0,0.010850694444444444,70.77907986111111,0)" xlink:href="#am"/><use transform="matrix(0.010850694444444444,0,0,0.010850694444444444,76.16102430555556,0)" xlink:href="#aH"/><use transform="matrix(0.010850694444444444,0,0,0.010850694444444444,89.76779513888889,0)" xlink:href="#ak"/><use transform="matrix(0.010850694444444444,0,0,0.010850694444444444,95.14973958333333,0)" xlink:href="#aj"/></g><path fill="#333" d="M750 21c-371 0-615-218-615-544v-967h305v942c0 174 123 299 310 299s309-125 309-299v-942h306v967c0 326-247 544-615 544" id="aR"/><path fill="#333" d="M572 22C302 22 117-98 78-306l279-48c29 105 101 156 224 156 114 0 185-48 185-115 0-118-228-130-337-155-215-49-322-150-322-317 0-215 187-347 470-347 265 0 424 116 466 298l-266 47c-24-76-87-130-196-130-98 0-174 46-174 113 0 56 38 95 144 117l201 40c216 44 320 143 320 302 0 220-207 367-500 367" id="aS"/><path fill="#333" d="M513 14c-232 0-385-159-385-421v-711h300v659c0 139 76 222 202 222 127 0 217-86 217-234v-647h301V0H864l-4-232C797-74 683 14 513 14" id="aT"/><path fill="#333" d="M440 22C227 22 68-92 68-313c0-250 202-322 422-343 195-21 271-24 271-105 0-95-63-149-175-149-116 0-187 57-211 129l-275-46c57-194 237-305 487-305 240 0 474 108 474 379V0H777v-155h-10C713-51 605 22 440 22zm85-211c140 0 238-93 238-211v-121c-37 26-156 42-222 51-111 16-185 59-185 149 0 87 70 132 169 132" id="aU"/><path fill="#333" d="M128 0v-1118h290v195h12c54-169 184-238 367-200v268c-27-8-86-15-130-15-138 0-239 95-239 234V0H128" id="aV"/><path fill="#333" d="M128 0v-1118h300V0H128zm150-1264c-91 0-165-68-165-154 0-85 74-154 165-154 90 0 165 69 165 154 0 86-75 154-165 154" id="aW"/><path fill="#333" d="M628 22C291 22 81-210 81-554c0-346 210-578 547-578 336 0 547 232 547 578 0 344-211 576-547 576zm0-236c160 0 242-146 242-341 0-197-82-341-242-341S387-753 387-555c0 195 81 341 241 341" id="aX"/><g id="E"><use transform="matrix(0.008680555555555556,0,0,0.008680555555555556,0,0)" xlink:href="#aR"/><use transform="matrix(0.008680555555555556,0,0,0.008680555555555556,13.012152777777779,0)" xlink:href="#aS"/><use transform="matrix(0.008680555555555556,0,0,0.008680555555555556,22.96875,0)" xlink:href="#aT"/><use transform="matrix(0.008680555555555556,0,0,0.008680555555555556,34.036458333333336,0)" xlink:href="#aU"/><use transform="matrix(0.008680555555555556,0,0,0.008680555555555556,44.35763888888889,0)" xlink:href="#aV"/><use transform="matrix(0.008680555555555556,0,0,0.008680555555555556,51.727430555555564,0)" xlink:href="#aW"/><use transform="matrix(0.008680555555555556,0,0,0.008680555555555556,56.5451388888889,0)" xlink:href="#aX"/></g><path fill="#333" d="M633 22C291 22 81-200 81-553c0-345 210-579 537-579 292 0 525 185 525 567v84H378c7 183 109 277 260 277 105 0 184-46 216-132l272 51C1071-99 893 22 633 22zM380-669h474c-15-146-94-237-233-237-143 0-229 99-241 237" id="aY"/><path fill="#333" d="M428-1490V0H128v-1490h300" id="aZ"/><path fill="#333" d="M625 442c-280 0-454-114-503-274l258-72c28 63 97 128 243 128 153 0 246-69 246-216v-206h-23C805-108 717-16 536-16 284-16 81-191 81-561c0-378 208-571 456-571 188 0 280 113 321 202h13v-188h295V-9c0 303-226 451-541 451zm5-686c153 0 240-119 240-319 0-198-86-329-240-329-158 0-241 137-241 329 0 195 85 319 241 319" id="ba"/><g id="F"><use transform="matrix(0.008680555555555556,0,0,0.008680555555555556,0,0)" xlink:href="#aY"/><use transform="matrix(0.008680555555555556,0,0,0.008680555555555556,10.590277777777779,0)" xlink:href="#aZ"/><use transform="matrix(0.008680555555555556,0,0,0.008680555555555556,15.407986111111112,0)" xlink:href="#aW"/><use transform="matrix(0.008680555555555556,0,0,0.008680555555555556,20.225694444444446,0)" xlink:href="#ba"/><use transform="matrix(0.008680555555555556,0,0,0.008680555555555556,31.458333333333336,0)" xlink:href="#aY"/></g><path fill="#333" d="M428-647V0H128v-1118h283l4 231c63-156 176-245 348-245 232 0 384 159 384 421V0H847v-659c0-139-76-222-202-222-128 0-217 86-217 234" id="bb"/><path fill="#333" d="M683-1118v229H474v562c0 71 29 104 102 104 23 0 73-7 95-13l43 225C647 9 580 16 520 16 296 16 174-96 174-301v-588H20v-229h154v-266h300v266h209" id="bc"/><g id="G"><use transform="matrix(0.008680555555555556,0,0,0.008680555555555556,0,0)" xlink:href="#aU"/><use transform="matrix(0.008680555555555556,0,0,0.008680555555555556,10.321180555555555,0)" xlink:href="#aS"/><use transform="matrix(0.008680555555555556,0,0,0.008680555555555556,20.27777777777778,0)" xlink:href="#aW"/><use transform="matrix(0.008680555555555556,0,0,0.008680555555555556,25.095486111111118,0)" xlink:href="#aY"/><use transform="matrix(0.008680555555555556,0,0,0.008680555555555556,35.68576388888889,0)" xlink:href="#bb"/><use transform="matrix(0.008680555555555556,0,0,0.008680555555555556,46.753472222222236,0)" xlink:href="#bc"/><use transform="matrix(0.008680555555555556,0,0,0.008680555555555556,53.09027777777778,0)" xlink:href="#aX"/></g><path fill="#333" d="M440-1490V0H135v-1490h305" id="bd"/><g id="H"><use transform="matrix(0.008680555555555556,0,0,0.008680555555555556,0,0)" xlink:href="#bd"/><use transform="matrix(0.008680555555555556,0,0,0.008680555555555556,4.991319444444445,0)" xlink:href="#bb"/><use transform="matrix(0.008680555555555556,0,0,0.008680555555555556,16.05902777777778,0)" xlink:href="#ba"/><use transform="matrix(0.008680555555555556,0,0,0.008680555555555556,27.291666666666668,0)" xlink:href="#aV"/><use transform="matrix(0.008680555555555556,0,0,0.008680555555555556,34.09722222222222,0)" xlink:href="#aY"/><use transform="matrix(0.008680555555555556,0,0,0.008680555555555556,44.6875,0)" xlink:href="#aS"/><use transform="matrix(0.008680555555555556,0,0,0.008680555555555556,54.64409722222222,0)" xlink:href="#aU"/></g><path fill="#333" d="M128 0v-1118h278l12 217c60-163 185-234 319-234 143 0 236 81 288 251 63-172 205-251 359-251 205 0 357 138 357 381V0h-301v-697c0-126-76-187-177-187-114 0-184 79-184 196V0H789v-705c0-109-72-179-174-179-106 0-187 74-187 208V0H128" id="be"/><path fill="#333" d="M754 19C571 19 479-89 437-179h-14V0H128v-1490h300v560h9c41-89 129-202 319-202 248 0 453 193 453 575 0 372-197 576-455 576zm-92-241c156 0 240-139 240-336 0-196-83-334-240-334-154 0-241 131-241 334 0 202 88 336 241 336" id="bf"/><g id="I"><use transform="matrix(0.008680555555555556,0,0,0.008680555555555556,0,0)" xlink:href="#bb"/><use transform="matrix(0.008680555555555556,0,0,0.008680555555555556,11.067708333333334,0)" xlink:href="#aX"/><use transform="matrix(0.008680555555555556,0,0,0.008680555555555556,21.970486111111114,0)" xlink:href="#be"/><use transform="matrix(0.008680555555555556,0,0,0.008680555555555556,38.19444444444444,0)" xlink:href="#bf"/><use transform="matrix(0.008680555555555556,0,0,0.008680555555555556,49.40104166666667,0)" xlink:href="#aV"/><use transform="matrix(0.008680555555555556,0,0,0.008680555555555556,56.20659722222222,0)" xlink:href="#aY"/></g><path fill="#333" d="M120 396l69-226c123 42 245 23 254-107l8-60L31-1118h319c87 288 199 559 259 872 72-308 185-583 277-872h315L726 132c-68 181-186 294-410 294-79 0-153-13-196-30" id="bg"/><use transform="matrix(0.008680555555555556,0,0,0.008680555555555556,0,0)" xlink:href="#bg" id="J"/><path fill="#333" d="M628 22C291 22 81-210 81-554c0-346 210-578 547-578 265 0 455 142 497 372l-279 52c-25-116-99-188-215-188-160 0-244 139-244 341 0 200 84 341 244 341 116 0 193-74 217-195l279 51C1085-123 896 22 628 22" id="bh"/><g id="K"><use transform="matrix(0.008680555555555556,0,0,0.008680555555555556,0,0)" xlink:href="#bh"/><use transform="matrix(0.008680555555555556,0,0,0.008680555555555556,10.460069444444445,0)" xlink:href="#aX"/><use transform="matrix(0.008680555555555556,0,0,0.008680555555555556,21.36284722222222,0)" xlink:href="#aV"/><use transform="matrix(0.008680555555555556,0,0,0.008680555555555556,28.732638888888886,0)" xlink:href="#aV"/><use transform="matrix(0.008680555555555556,0,0,0.008680555555555556,35.53819444444444,0)" xlink:href="#aY"/><use transform="matrix(0.008680555555555556,0,0,0.008680555555555556,46.12847222222222,0)" xlink:href="#aX"/></g><path fill="#333" d="M681 22C323 22 94-145 85-462h297c10 151 131 226 296 226 163 0 271-77 271-190 0-102-95-149-257-189l-164-41c-252-61-403-188-403-405 0-269 236-449 560-449 330 0 546 183 551 445H941c-11-119-106-188-259-188-156 0-244 72-244 172-3 156 226 185 373 221 250 61 445 186 445 436 0 271-213 446-575 446" id="bi"/><path fill="#333" d="M537 19C279 19 81-185 81-557c0-382 206-575 454-575 190 0 278 113 318 202h10v-560h300V0H868v-179h-15C812-89 719 19 537 19zm92-241c153 0 240-134 240-336 0-203-86-334-240-334-158 0-240 138-240 334 0 197 84 336 240 336" id="bj"/><g id="L"><use transform="matrix(0.008680555555555556,0,0,0.008680555555555556,0,0)" xlink:href="#bi"/><use transform="matrix(0.008680555555555556,0,0,0.008680555555555556,11.640625,0)" xlink:href="#aX"/><use transform="matrix(0.008680555555555556,0,0,0.008680555555555556,22.54340277777778,0)" xlink:href="#aZ"/><use transform="matrix(0.008680555555555556,0,0,0.008680555555555556,27.36111111111111,0)" xlink:href="#aW"/><use transform="matrix(0.008680555555555556,0,0,0.008680555555555556,32.17881944444445,0)" xlink:href="#bh"/><use transform="matrix(0.008680555555555556,0,0,0.008680555555555556,42.63888888888889,0)" xlink:href="#aW"/><use transform="matrix(0.008680555555555556,0,0,0.008680555555555556,47.456597222222236,0)" xlink:href="#bc"/><use transform="matrix(0.008680555555555556,0,0,0.008680555555555556,53.96701388888889,0)" xlink:href="#aT"/><use transform="matrix(0.008680555555555556,0,0,0.008680555555555556,65.03472222222223,0)" xlink:href="#bj"/></g><path fill="#333" d="M135 0v-1490h305v602h649v-602h306V0h-306v-635H440V0H135" id="bk"/><path fill="#333" d="M75-1237v-253h1217v253H837V0H531v-1237H75" id="bl"/><path fill="#333" d="M135 0v-1490h581c339 0 533 210 533 503 0 295-197 500-540 500H440V0H135zm305-733h220c186 0 274-104 274-254s-88-251-275-251H440v505" id="bm"/><g id="M"><use transform="matrix(0.008680555555555556,0,0,0.008680555555555556,0,0)" xlink:href="#bk"/><use transform="matrix(0.008680555555555556,0,0,0.008680555555555556,13.28125,0)" xlink:href="#bl"/><use transform="matrix(0.008680555555555556,0,0,0.008680555555555556,25.147569444444443,0)" xlink:href="#bl"/><use transform="matrix(0.008680555555555556,0,0,0.008680555555555556,37.013888888888886,0)" xlink:href="#bm"/></g><use transform="matrix(0.008680555555555556,0,0,0.008680555555555556,0,0)" xlink:href="#aU" id="N"/><path fill="#333" d="M49 0l509-1490h400L1480 0h-339l-115-346H497L386 0H49zm524-585h374c-75-213-124-402-192-666-66 268-110 453-182 666" id="bn"/><g id="O"><use transform="matrix(0.008680555555555556,0,0,0.008680555555555556,0,0)" xlink:href="#bn"/><use transform="matrix(0.008680555555555556,0,0,0.008680555555555556,13.272569444444445,0)" xlink:href="#bm"/><use transform="matrix(0.008680555555555556,0,0,0.008680555555555556,24.791666666666668,0)" xlink:href="#bd"/></g><path fill="#333" d="M795 20C377 20 94-272 94-743c0-483 302-767 694-767 335 0 593 206 635 500h-310c-42-142-154-229-320-229-230 0-389 177-389 493s154 495 393 495c212 0 340-120 345-311H818v-232h620v186c0 391-269 628-643 628" id="bo"/><path fill="#333" d="M361 0L31-1118h315c68 295 127 523 188 845 63-317 128-551 199-845h276c71 296 131 525 196 846 57-321 119-552 186-846h319L1378 0h-305c-73-261-148-486-204-771C813-484 740-261 666 0H361" id="bp"/><g id="P"><use transform="matrix(0.008680555555555556,0,0,0.008680555555555556,0,0)" xlink:href="#bo"/><use transform="matrix(0.008680555555555556,0,0,0.008680555555555556,13.34201388888889,0)" xlink:href="#aU"/><use transform="matrix(0.008680555555555556,0,0,0.008680555555555556,23.663194444444443,0)" xlink:href="#bc"/><use transform="matrix(0.008680555555555556,0,0,0.008680555555555556,30,0)" xlink:href="#aY"/><use transform="matrix(0.008680555555555556,0,0,0.008680555555555556,40.34722222222222,0)" xlink:href="#bp"/><use transform="matrix(0.008680555555555556,0,0,0.008680555555555556,55.416666666666664,0)" xlink:href="#aU"/><use transform="matrix(0.008680555555555556,0,0,0.008680555555555556,65.43402777777777,0)" xlink:href="#bg"/></g><path fill="#333" d="M135 0v-1490h581c339 0 533 192 533 485 0 204-94 351-264 424L1302 0H964L680-532H440V0H135zm305-779h220c186 0 274-77 274-226 0-150-88-233-275-233H440v459" id="bq"/><path fill="#333" d="M128 418v-1536h295v188h14c41-89 129-202 319-202 248 0 453 193 453 575 0 372-197 576-455 576-183 0-275-108-317-198h-9v597H128zm534-640c156 0 240-139 240-336 0-196-83-334-240-334-154 0-241 131-241 334 0 202 88 336 241 336" id="br"/><g id="Q"><use transform="matrix(0.008680555555555556,0,0,0.008680555555555556,0,0)" xlink:href="#bq"/><use transform="matrix(0.008680555555555556,0,0,0.008680555555555556,11.458333333333334,0)" xlink:href="#aY"/><use transform="matrix(0.008680555555555556,0,0,0.008680555555555556,22.048611111111114,0)" xlink:href="#bh"/><use transform="matrix(0.008680555555555556,0,0,0.008680555555555556,32.50868055555556,0)" xlink:href="#aT"/><use transform="matrix(0.008680555555555556,0,0,0.008680555555555556,43.57638888888889,0)" xlink:href="#br"/><use transform="matrix(0.008680555555555556,0,0,0.008680555555555556,54.782986111111114,0)" xlink:href="#aY"/><use transform="matrix(0.008680555555555556,0,0,0.008680555555555556,65.37326388888889,0)" xlink:href="#aV"/><use transform="matrix(0.008680555555555556,0,0,0.008680555555555556,72.36979166666666,0)" xlink:href="#aU"/></g><path fill="#333" d="M342 19c-98 0-173-75-173-172s75-172 173-172 173 75 173 172S440 19 342 19" id="bs"/><path fill="#333" d="M127-1118h301V57c1 278-186 374-478 361V182c116 8 177-28 177-129v-1171zm151-146c-90 0-165-68-165-154 0-85 75-154 165-154s165 69 165 154c0 86-75 154-165 154" id="bt"/><g id="R"><use transform="matrix(0.008680555555555556,0,0,0.008680555555555556,0,0)" xlink:href="#bj"/><use transform="matrix(0.008680555555555556,0,0,0.008680555555555556,11.206597222222223,0)" xlink:href="#aU"/><use transform="matrix(0.008680555555555556,0,0,0.008680555555555556,21.52777777777778,0)" xlink:href="#bc"/><use transform="matrix(0.008680555555555556,0,0,0.008680555555555556,28.125000000000004,0)" xlink:href="#aU"/><use transform="matrix(0.008680555555555556,0,0,0.008680555555555556,38.44618055555556,0)" xlink:href="#bs"/><use transform="matrix(0.008680555555555556,0,0,0.008680555555555556,44.38368055555556,0)" xlink:href="#bt"/><use transform="matrix(0.008680555555555556,0,0,0.008680555555555556,49.20138888888889,0)" xlink:href="#aS"/><use transform="matrix(0.008680555555555556,0,0,0.008680555555555556,59.157986111111114,0)" xlink:href="#aX"/><use transform="matrix(0.008680555555555556,0,0,0.008680555555555556,70.06076388888889,0)" xlink:href="#bb"/></g><g id="S"><use transform="matrix(0.008680555555555556,0,0,0.008680555555555556,0,0)" xlink:href="#bj"/><use transform="matrix(0.008680555555555556,0,0,0.008680555555555556,11.206597222222223,0)" xlink:href="#aY"/></g><path fill="#333" d="M659 20C335 20 103-159 99-418h307c5 112 113 185 254 185 147 0 250-83 250-204 0-123-105-209-278-209H494v-227h138c145 0 246-81 246-200 0-115-87-193-216-193-130 0-237 73-240 189H128c4-255 233-433 536-433 306 0 510 185 510 418 0 167-114 285-279 317v11c217 29 333 162 333 347 0 254-237 437-569 437" id="bu"/><g id="T"><use transform="matrix(0.008680555555555556,0,0,0.008680555555555556,0,0)" xlink:href="#bi"/><use transform="matrix(0.008680555555555556,0,0,0.008680555555555556,11.640625,0)" xlink:href="#bu"/></g><path fill="#333" d="M443 0L31-1118h319c90 293 199 572 268 885 66-313 175-593 264-885h315L784 0H443" id="bv"/><path fill="#333" d="M750-1118v229H516V0H217v-889H20v-229h197v-86c0-238 156-356 363-356 94 0 178 20 215 31l-54 226c-25-7-61-15-100-15-123-3-131 84-125 200h234" id="bw"/><g id="U"><use transform="matrix(0.008680555555555556,0,0,0.008680555555555556,0,0)" xlink:href="#bv"/><use transform="matrix(0.008680555555555556,0,0,0.008680555555555556,10.338541666666668,0)" xlink:href="#aY"/><use transform="matrix(0.008680555555555556,0,0,0.008680555555555556,20.928819444444446,0)" xlink:href="#aV"/><use transform="matrix(0.008680555555555556,0,0,0.008680555555555556,28.29861111111111,0)" xlink:href="#aW"/><use transform="matrix(0.008680555555555556,0,0,0.008680555555555556,33.11631944444445,0)" xlink:href="#bw"/><use transform="matrix(0.008680555555555556,0,0,0.008680555555555556,40.33854166666667,0)" xlink:href="#aW"/><use transform="matrix(0.008680555555555556,0,0,0.008680555555555556,45.15625000000001,0)" xlink:href="#bh"/><use transform="matrix(0.008680555555555556,0,0,0.008680555555555556,55.789930555555564,0)" xlink:href="#aU"/></g><g id="V"><use transform="matrix(0.008680555555555556,0,0,0.008680555555555556,0,0)" xlink:href="#bj"/><use transform="matrix(0.008680555555555556,0,0,0.008680555555555556,11.206597222222223,0)" xlink:href="#aW"/><use transform="matrix(0.008680555555555556,0,0,0.008680555555555556,16.024305555555557,0)" xlink:href="#aS"/><use transform="matrix(0.008680555555555556,0,0,0.008680555555555556,25.98090277777778,0)" xlink:href="#br"/><use transform="matrix(0.008680555555555556,0,0,0.008680555555555556,37.1875,0)" xlink:href="#aX"/><use transform="matrix(0.008680555555555556,0,0,0.008680555555555556,48.09027777777778,0)" xlink:href="#bb"/><use transform="matrix(0.008680555555555556,0,0,0.008680555555555556,59.157986111111114,0)" xlink:href="#aW"/><use transform="matrix(0.008680555555555556,0,0,0.008680555555555556,63.97569444444445,0)" xlink:href="#bf"/><use transform="matrix(0.008680555555555556,0,0,0.008680555555555556,75.18229166666667,0)" xlink:href="#aW"/><use transform="matrix(0.008680555555555556,0,0,0.008680555555555556,80,0)" xlink:href="#aZ"/><use transform="matrix(0.008680555555555556,0,0,0.008680555555555556,84.81770833333331,0)" xlink:href="#aW"/><use transform="matrix(0.008680555555555556,0,0,0.008680555555555556,89.63541666666666,0)" xlink:href="#bj"/><use transform="matrix(0.008680555555555556,0,0,0.008680555555555556,100.8420138888889,0)" xlink:href="#aU"/><use transform="matrix(0.008680555555555556,0,0,0.008680555555555556,111.16319444444444,0)" xlink:href="#bj"/></g><path fill="#333" d="M120 0v-182l551-686v-8H137v-242h897v199L514-250v8h539V0H120" id="bx"/><g id="W"><use transform="matrix(0.008680555555555556,0,0,0.008680555555555556,0,0)" xlink:href="#bn"/><use transform="matrix(0.008680555555555556,0,0,0.008680555555555556,12.864583333333334,0)" xlink:href="#bh"/><use transform="matrix(0.008680555555555556,0,0,0.008680555555555556,23.32465277777778,0)" xlink:href="#bc"/><use transform="matrix(0.008680555555555556,0,0,0.008680555555555556,29.835069444444446,0)" xlink:href="#aT"/><use transform="matrix(0.008680555555555556,0,0,0.008680555555555556,40.90277777777778,0)" xlink:href="#aU"/><use transform="matrix(0.008680555555555556,0,0,0.008680555555555556,51.223958333333336,0)" xlink:href="#aZ"/><use transform="matrix(0.008680555555555556,0,0,0.008680555555555556,56.04166666666667,0)" xlink:href="#aW"/><use transform="matrix(0.008680555555555556,0,0,0.008680555555555556,60.85937500000001,0)" xlink:href="#bx"/><use transform="matrix(0.008680555555555556,0,0,0.008680555555555556,71.04166666666667,0)" xlink:href="#aU"/></g><g id="X"><use transform="matrix(0.008680555555555556,0,0,0.008680555555555556,0,0)" xlink:href="#bj"/><use transform="matrix(0.008680555555555556,0,0,0.008680555555555556,11.206597222222223,0)" xlink:href="#aU"/><use transform="matrix(0.008680555555555556,0,0,0.008680555555555556,21.52777777777778,0)" xlink:href="#bc"/><use transform="matrix(0.008680555555555556,0,0,0.008680555555555556,28.125000000000004,0)" xlink:href="#aU"/><use transform="matrix(0.008680555555555556,0,0,0.008680555555555556,38.44618055555556,0)" xlink:href="#bs"/><use transform="matrix(0.008680555555555556,0,0,0.008680555555555556,44.38368055555556,0)" xlink:href="#bt"/><use transform="matrix(0.008680555555555556,0,0,0.008680555555555556,49.20138888888889,0)" xlink:href="#aS"/><use transform="matrix(0.008680555555555556,0,0,0.008680555555555556,59.157986111111114,0)" xlink:href="#aX"/><use transform="matrix(0.008680555555555556,0,0,0.008680555555555556,70.06076388888889,0)" xlink:href="#bb"/></g><path fill="#333" d="M135 0v-1490h468l242 684c30 94 76 293 111 455 34-161 80-360 110-455l238-684h470V0h-307c0-447-3-765 11-1227-122 503-246 788-395 1227H826C676-435 552-717 427-1215c15 453 11 775 11 1215H135" id="by"/><g id="Y"><use transform="matrix(0.008680555555555556,0,0,0.008680555555555556,0,0)" xlink:href="#by"/><use transform="matrix(0.008680555555555556,0,0,0.008680555555555556,16.5625,0)" xlink:href="#aT"/><use transform="matrix(0.008680555555555556,0,0,0.008680555555555556,27.630208333333336,0)" xlink:href="#aY"/><use transform="matrix(0.008680555555555556,0,0,0.008680555555555556,38.220486111111114,0)" xlink:href="#aS"/><use transform="matrix(0.008680555555555556,0,0,0.008680555555555556,48.177083333333336,0)" xlink:href="#bc"/><use transform="matrix(0.008680555555555556,0,0,0.008680555555555556,54.6875,0)" xlink:href="#aV"/><use transform="matrix(0.008680555555555556,0,0,0.008680555555555556,61.68402777777778,0)" xlink:href="#aU"/></g><g id="Z"><use transform="matrix(0.008680555555555556,0,0,0.008680555555555556,0,0)" xlink:href="#aY"/><use transform="matrix(0.008680555555555556,0,0,0.008680555555555556,10.590277777777779,0)" xlink:href="#bb"/></g><g id="aa"><use transform="matrix(0.008680555555555556,0,0,0.008680555555555556,0,0)" xlink:href="#br"/><use transform="matrix(0.008680555555555556,0,0,0.008680555555555556,11.380208333333334,0)" xlink:href="#aU"/><use transform="matrix(0.008680555555555556,0,0,0.008680555555555556,21.70138888888889,0)" xlink:href="#bb"/><use transform="matrix(0.008680555555555556,0,0,0.008680555555555556,32.76909722222222,0)" xlink:href="#bc"/><use transform="matrix(0.008680555555555556,0,0,0.008680555555555556,39.36631944444444,0)" xlink:href="#aU"/><use transform="matrix(0.008680555555555556,0,0,0.008680555555555556,49.6875,0)" xlink:href="#aZ"/><use transform="matrix(0.008680555555555556,0,0,0.008680555555555556,54.505208333333336,0)" xlink:href="#aZ"/><use transform="matrix(0.008680555555555556,0,0,0.008680555555555556,59.32291666666667,0)" xlink:href="#aU"/></g><path fill="#333" d="M768-1560L288 224H28l480-1784h260" id="bz"/><g id="ab"><use transform="matrix(0.008680555555555556,0,0,0.008680555555555556,0,0)" xlink:href="#bg"/><use transform="matrix(0.008680555555555556,0,0,0.008680555555555556,9.696180555555555,0)" xlink:href="#bz"/><use transform="matrix(0.008680555555555556,0,0,0.008680555555555556,16.59722222222222,0)" xlink:href="#aX"/></g><path fill="#333" d="M128 0v-1118h300V0H128zm41-1260l139-311h278l-207 311H169" id="bA"/><g id="ac"><use transform="matrix(0.008680555555555556,0,0,0.008680555555555556,0,0)" xlink:href="#aY"/><use transform="matrix(0.008680555555555556,0,0,0.008680555555555556,10.590277777777779,0)" xlink:href="#bb"/><use transform="matrix(0.008680555555555556,0,0,0.008680555555555556,21.354166666666668,0)" xlink:href="#bv"/><use transform="matrix(0.008680555555555556,0,0,0.008680555555555556,32.01388888888889,0)" xlink:href="#bA"/><use transform="matrix(0.008680555555555556,0,0,0.008680555555555556,36.83159722222223,0)" xlink:href="#aU"/></g><g id="ad"><use transform="matrix(0.008680555555555556,0,0,0.008680555555555556,0,0)" xlink:href="#br"/><use transform="matrix(0.008680555555555556,0,0,0.008680555555555556,11.206597222222223,0)" xlink:href="#aX"/><use transform="matrix(0.008680555555555556,0,0,0.008680555555555556,22.109375,0)" xlink:href="#aV"/></g><path fill="#333" d="M135 0v-1490h340l471 754c59 97 122 210 187 365-32-387-14-721-19-1119h312V0h-341C855-382 627-689 427-1113c32 420 16 695 20 1113H135" id="bB"/><g id="ae"><use transform="matrix(0.008680555555555556,0,0,0.008680555555555556,0,0)" xlink:href="#bB"/><use transform="matrix(0.008680555555555556,0,0,0.008680555555555556,13.550347222222223,0)" xlink:href="#aX"/></g><g id="af"><use transform="matrix(0.008680555555555556,0,0,0.008680555555555556,0,0)" xlink:href="#bi"/><use transform="matrix(0.008680555555555556,0,0,0.008680555555555556,11.640625,0)" xlink:href="#aW"/></g><path d="M180 0v-1490h901v168H370v510h643v168H370V0H180" id="bC"/><g id="ag"><use transform="matrix(0.010850694444444444,0,0,0.010850694444444444,0,0)" xlink:href="#bC"/><use transform="matrix(0.010850694444444444,0,0,0.010850694444444444,13.118489583333332,0)" xlink:href="#am"/><use transform="matrix(0.010850694444444444,0,0,0.010850694444444444,18.50043402777778,0)" xlink:href="#ao"/><use transform="matrix(0.010850694444444444,0,0,0.010850694444444444,31.62977430555556,0)" xlink:href="#ay"/><use transform="matrix(0.010850694444444444,0,0,0.010850694444444444,44.10807291666667,0)" xlink:href="#ak"/></g><path d="M370-1490V0H180v-1490h190" id="bD"/><g id="ah"><use transform="matrix(0.010850694444444444,0,0,0.010850694444444444,0,0)" xlink:href="#bD"/><use transform="matrix(0.010850694444444444,0,0,0.010850694444444444,5.967881944444445,0)" xlink:href="#ao"/><use transform="matrix(0.010850694444444444,0,0,0.010850694444444444,19.09722222222222,0)" xlink:href="#am"/><use transform="matrix(0.010850694444444444,0,0,0.010850694444444444,24.479166666666664,0)" xlink:href="#al"/><use transform="matrix(0.010850694444444444,0,0,0.010850694444444444,37.174479166666664,0)" xlink:href="#am"/><use transform="matrix(0.010850694444444444,0,0,0.010850694444444444,42.55642361111111,0)" xlink:href="#at"/></g></defs></g></svg>