<svg xmlns="http://www.w3.org/2000/svg" xmlns:xlink="http://www.w3.org/1999/xlink" xmlns:lucid="lucid" width="3985" height="1927.09"><g transform="translate(582.5 -76.68940835880812)" lucid:page-tab-id="0_0"><path d="M-580 106a6 6 0 0 1 6-6h148a6 6 0 0 1 6 6v108a6 6 0 0 1-6 6h-148a6 6 0 0 1-6-6z" stroke="#6db1ff" stroke-width="5" fill="#edf5ff"/><use xlink:href="#a" transform="matrix(1,0,0,1,-568,112) translate(27.347873263888893 57.52777777777778)"/><path d="M-579 1866a6 6 0 0 1 6-6h148a6 6 0 0 1 6 6v108a6 6 0 0 1-6 6h-148a6 6 0 0 1-6-6z" stroke="#6db1ff" stroke-width="5" fill="#edf5ff"/><use xlink:href="#b" transform="matrix(1,0,0,1,-566.9999999999998,1872) translate(27.347873263888893 57.52777777777778)"/><path d="M180 106a6 6 0 0 1 6-6h148a6 6 0 0 1 6 6v108a6 6 0 0 1-6 6H186a6 6 0 0 1-6-6z" stroke="#6db1ff" stroke-width="5" fill="#edf5ff"/><use xlink:href="#c" transform="matrix(1,0,0,1,192,112) translate(1.3821614583333286 57.52777777777778)"/><use xlink:href="#d" transform="matrix(1,0,0,1,192,112) translate(43.12478298611111 57.52777777777778)"/><path d="M160 1839.22a6 6 0 0 1 6-6h149a6 6 0 0 1 6 6v149.28a6 6 0 0 1-6 6H166a6 6 0 0 1-6-6z" stroke="#6db1ff" stroke-width="5" fill="#edf5ff"/><use xlink:href="#c" transform="matrix(1,0,0,1,172,1845.2195310117938) translate(2.3821614583333286 77.59027777777777)"/><use xlink:href="#d" transform="matrix(1,0,0,1,172,1845.2195310117938) translate(44.12478298611111 77.59027777777777)"/><path d="M-499 224v1625" stroke="#6db1ff" stroke-width="5" stroke-linecap="round" fill="none"/><path d="M-120 280.56c22.1 0 40 17.9 40 40s-17.9 40-40 40h-140c-22.1 0-40-17.9-40-40s17.9-40 40-40z" stroke="#6db1ff" stroke-width="5" fill="#edf5ff"/><use xlink:href="#e" transform="matrix(1,0,0,1,-295,285.5561509851777) translate(39.21223958333334 43.40277777777778)"/><path d="M-46.02 840c22.1 0 40 17.9 40 40s-17.9 40-40 40h-200c-22.1 0-40-17.9-40-40s17.9-40 40-40z" stroke="#6db1ff" stroke-width="5" fill="#edf5ff"/><use xlink:href="#f" transform="matrix(1,0,0,1,-281.01657406627754,845) translate(47.451171875 43.40277777777778)"/><use xlink:href="#g" transform="matrix(1,0,0,1,-281.01657406627754,845) translate(118.57747395833333 43.40277777777778)"/><path d="M-60 740c22.1 0 40 17.9 40 40s-17.9 40-40 40h-172.03c-22.1 0-40-17.9-40-40s17.9-40 40-40z" stroke="#6db1ff" stroke-width="5" fill="#edf5ff"/><use xlink:href="#h" transform="matrix(1,0,0,1,-267.0331481325551,745) translate(-0.16341145833331439 43.083767361111114)"/><path d="M-40 1200c22.1 0 40 17.9 40 40s-17.9 40-40 40h-200c-22.1 0-40-17.9-40-40s17.9-40 40-40z" stroke="#6db1ff" stroke-width="5" fill="#edf5ff"/><use xlink:href="#i" transform="matrix(1,0,0,1,-275,1205) translate(47.451171875 43.40277777777778)"/><use xlink:href="#j" transform="matrix(1,0,0,1,-275,1205) translate(118.57747395833333 43.40277777777778)"/><path d="M-59.33 1300c22.1 0 40 17.9 40 40s-17.9 40-40 40h-200c-22.1 0-40-17.9-40-40s17.9-40 40-40z" stroke="#6db1ff" stroke-width="5" fill="#edf5ff"/><use xlink:href="#k" transform="matrix(1,0,0,1,-294.3309343272532,1305) translate(7.4555121527778 43.40277777777778)"/><path d="M-19.33 1520c22.1 0 40 17.9 40 40s-17.9 40-40 40H-320c-22.1 0-40-17.9-40-40s17.9-40 40-40z" stroke="#6db1ff" stroke-width="5" fill="#edf5ff"/><use xlink:href="#f" transform="matrix(1,0,0,1,-355,1525) translate(36.78038194444446 43.40277777777778)"/><use xlink:href="#l" transform="matrix(1,0,0,1,-355,1525) translate(107.90668402777779 43.40277777777778)"/><use xlink:href="#m" transform="matrix(1,0,0,1,-355,1525) translate(238.75520833333331 43.40277777777778)"/><use xlink:href="#n" transform="matrix(1,0,0,1,-355,1525) translate(276.94965277777777 43.40277777777778)"/><path d="M621 340c22.1 0 40 17.9 40 40s-17.9 40-40 40H421c-22.1 0-40-17.9-40-40s17.9-40 40-40z" stroke="#6db1ff" stroke-width="5" fill="#edf5ff"/><use xlink:href="#o" transform="matrix(1,0,0,1,386.0000000000001,345) translate(49.48567708333334 43.40277777777778)"/><use xlink:href="#p" transform="matrix(1,0,0,1,386.0000000000001,345) translate(141.48871527777777 43.40277777777778)"/><path d="M600 580c22.1 0 40 17.9 40 40s-17.9 40-40 40H400c-22.1 0-40-17.9-40-40s17.9-40 40-40z" stroke="#6db1ff" stroke-width="5" fill="#edf5ff"/><use xlink:href="#q" transform="matrix(1,0,0,1,365,585) translate(31.16385416666666 30.27777777777778)"/><use xlink:href="#r" transform="matrix(1,0,0,1,365,585) translate(151.06402777777777 30.27777777777778)"/><use xlink:href="#s" transform="matrix(1,0,0,1,365,585) translate(82.94336805555557 57.165798611111114)"/><path d="M1040 1220c22.1 0 40 17.9 40 40s-17.9 40-40 40H840c-22.1 0-40-17.9-40-40s17.9-40 40-40z" stroke="#6db1ff" stroke-width="5" fill="#edf5ff"/><use xlink:href="#t" transform="matrix(1,0,0,1,805,1225) translate(20.026041666666686 43.40277777777778)"/><use xlink:href="#u" transform="matrix(1,0,0,1,805,1225) translate(112.02907986111113 43.40277777777778)"/><path d="M1000 1040c22.1 0 40 17.9 40 40s-17.9 40-40 40H800c-22.1 0-40-17.9-40-40s17.9-40 40-40z" stroke="#6db1ff" stroke-width="5" fill="#edf5ff"/><use xlink:href="#v" transform="matrix(1,0,0,1,765,1045) translate(17.9047309027778 43.40277777777778)"/><use xlink:href="#w" transform="matrix(1,0,0,1,765,1045) translate(114.15039062500001 43.40277777777778)"/><path d="M720 800c22.1 0 40 17.9 40 40s-17.9 40-40 40H520c-22.1 0-40-17.9-40-40s17.9-40 40-40z" stroke="#6db1ff" stroke-width="5" fill="#edf5ff"/><use xlink:href="#o" transform="matrix(1,0,0,1,485,805) translate(49.48567708333334 43.40277777777778)"/><use xlink:href="#p" transform="matrix(1,0,0,1,485,805) translate(141.48871527777777 43.40277777777778)"/><path d="M1140 1460c22.1 0 40 17.9 40 40s-17.9 40-40 40H940c-22.1 0-40-17.9-40-40s17.9-40 40-40z" stroke="#6db1ff" stroke-width="5" fill="#edf5ff"/><use xlink:href="#x" transform="matrix(1,0,0,1,905,1465) translate(52.51844618055556 43.40277777777778)"/><use xlink:href="#y" transform="matrix(1,0,0,1,905,1465) translate(159.28927951388889 43.40277777777778)"/><path d="M1560 406.5c22.1 0 40 17.9 40 40s-17.9 40-40 40h-280c-22.1 0-40-17.9-40-40s17.9-40 40-40z" stroke="#6db1ff" stroke-width="5" fill="#edf5ff"/><use xlink:href="#z" transform="matrix(1,0,0,1,1245,411.50128563504245) translate(49.37608506944446 43.40277777777778)"/><use xlink:href="#A" transform="matrix(1,0,0,1,1245,411.50128563504245) translate(102.46853298611111 43.40277777777778)"/><use xlink:href="#B" transform="matrix(1,0,0,1,1245,411.50128563504245) translate(196.50065104166669 43.40277777777778)"/><path d="M1560 570c22.1 0 40 17.92 40 40 0 22.1-17.9 40-40 40h-280c-22.1 0-40-17.9-40-40 0-22.08 17.9-40 40-40z" stroke="#6db1ff" stroke-width="5" fill="#edf5ff"/><use xlink:href="#v" transform="matrix(1,0,0,1,1245,575.0087986844948) translate(97.78103298611111 43.40277777777778)"/><use xlink:href="#C" transform="matrix(1,0,0,1,1245,575.0087986844948) translate(194.02669270833331 43.40277777777778)"/><path d="M1860 840c22.1 0 40 17.9 40 40s-17.9 40-40 40h-280c-22.1 0-40-17.9-40-40s17.9-40 40-40z" stroke="#6db1ff" stroke-width="5" fill="#edf5ff"/><use xlink:href="#D" transform="matrix(1,0,0,1,1545,845) translate(54.763454861111114 43.40277777777778)"/><use xlink:href="#E" transform="matrix(1,0,0,1,1545,845) translate(149.63107638888889 43.40277777777778)"/><path d="M1880 991.64c22.1 0 40 17.9 40 40s-17.9 40-40 40h-280c-22.1 0-40-17.9-40-40s17.9-40 40-40z" stroke="#6db1ff" stroke-width="5" fill="#edf5ff"/><use xlink:href="#F" transform="matrix(1,0,0,1,1565,996.6394354257864) translate(46.413845486111114 43.40277777777778)"/><use xlink:href="#E" transform="matrix(1,0,0,1,1565,996.6394354257864) translate(157.98068576388889 43.40277777777778)"/><path d="M1860 1120c22.1 0 40 17.9 40 40s-17.9 40-40 40h-280c-22.1 0-40-17.9-40-40s17.9-40 40-40z" stroke="#6db1ff" stroke-width="5" fill="#edf5ff"/><use xlink:href="#G" transform="matrix(1,0,0,1,1545,1125) translate(42.46961805555557 43.40277777777778)"/><use xlink:href="#H" transform="matrix(1,0,0,1,1545,1125) translate(133.36588541666669 43.40277777777778)"/><use xlink:href="#I" transform="matrix(1,0,0,1,1545,1125) translate(215.51649305555557 43.40277777777778)"/><path d="M2233.16 1280c22.1 0 40 17.9 40 40s-17.9 40-40 40h-280c-22.1 0-40-17.9-40-40s17.9-40 40-40z" stroke="#6db1ff" stroke-width="5" fill="#edf5ff"/><use xlink:href="#J" transform="matrix(1,0,0,1,1918.158227848102,1285) translate(106.10894097222223 43.40277777777778)"/><use xlink:href="#K" transform="matrix(1,0,0,1,1918.158227848102,1285) translate(185.52517361111111 43.40277777777778)"/><path d="M2240 1400c22.1 0 40 17.9 40 40s-17.9 40-40 40h-280c-22.1 0-40-17.9-40-40s17.9-40 40-40z" stroke="#6db1ff" stroke-width="5" fill="#edf5ff"/><use xlink:href="#v" transform="matrix(1,0,0,1,1925,1405) translate(46.923828125 43.40277777777778)"/><use xlink:href="#L" transform="matrix(1,0,0,1,1925,1405) translate(143.16948784722223 43.40277777777778)"/><use xlink:href="#M" transform="matrix(1,0,0,1,1925,1405) translate(207.61176215277777 43.40277777777778)"/><use xlink:href="#N" transform="matrix(1,0,0,1,1925,1405) translate(245.80620659722223 43.40277777777778)"/><path d="M3180 1500c22.1 0 40 17.9 40 40s-17.9 40-40 40h-280c-22.1 0-40-17.9-40-40s17.9-40 40-40z" stroke="#6db1ff" stroke-width="5" fill="#edf5ff"/><use xlink:href="#O" transform="matrix(1,0,0,1,2865,1505) translate(18.701171875 43.40277777777778)"/><use xlink:href="#P" transform="matrix(1,0,0,1,2865,1505) translate(137.23415798611111 43.40277777777778)"/><use xlink:href="#Q" transform="matrix(1,0,0,1,2865,1505) translate(248.08485243055554 43.40277777777778)"/><path d="M1750.12 1680c22.1 0 40 17.9 40 40s-17.9 40-40 40h-280c-22.1 0-40-17.9-40-40s17.9-40 40-40z" stroke="#6db1ff" stroke-width="5" fill="#edf5ff"/><use xlink:href="#R" transform="matrix(1,0,0,1,1435.1202531645577,1685) translate(30.251736111111143 43.40277777777778)"/><use xlink:href="#P" transform="matrix(1,0,0,1,1435.1202531645577,1685) translate(125.68359375000003 43.40277777777778)"/><use xlink:href="#Q" transform="matrix(1,0,0,1,1435.1202531645577,1685) translate(236.53428819444446 43.40277777777778)"/><path d="M642 85.2a6 6 0 0 1 6-6h206a6 6 0 0 1 6 6v108a6 6 0 0 1-6 6H648a6 6 0 0 1-6-6z" stroke="#6db1ff" stroke-width="5" fill="#edf5ff"/><use xlink:href="#S" transform="matrix(1,0,0,1,654.0000000000005,91.18940835880812) translate(9.093098958333357 42.52777777777778)"/><use xlink:href="#T" transform="matrix(1,0,0,1,654.0000000000005,91.18940835880812) translate(51.682074652777786 69.41579861111111)"/><path d="M683.3 1826a6 6 0 0 1 6-6H894a6 6 0 0 1 6 6v149.28a6 6 0 0 1-6 6H689.3a6 6 0 0 1-6-6z" stroke="#6db1ff" stroke-width="5" fill="#edf5ff"/><use xlink:href="#U" transform="matrix(1,0,0,1,695.2911392405065,1832) translate(8.593098958333357 64.65277777777777)"/><use xlink:href="#V" transform="matrix(1,0,0,1,695.2911392405065,1832) translate(51.182074652777786 91.54079861111111)"/><path d="M764.8 203.2V1829" stroke="#6db1ff" stroke-width="5" stroke-linecap="round" fill="none"/><path d="M1280 106a6 6 0 0 1 6-6h148a6 6 0 0 1 6 6v108a6 6 0 0 1-6 6h-148a6 6 0 0 1-6-6z" stroke="#6db1ff" stroke-width="5" fill="#edf5ff"/><use xlink:href="#W" transform="matrix(1,0,0,1,1292,112) translate(20.92426215277778 42.52777777777778)"/><use xlink:href="#T" transform="matrix(1,0,0,1,1292,112) translate(22.682074652777786 69.41579861111111)"/><path d="M1266.96 1844.72a6 6 0 0 1 6-6h149a6 6 0 0 1 6 6V1994a6 6 0 0 1-6 6h-149a6 6 0 0 1-6-6z" stroke="#6db1ff" stroke-width="5" fill="#edf5ff"/><use xlink:href="#W" transform="matrix(1,0,0,1,1278.9620253164558,1850.7159545099905) translate(21.92426215277778 64.65277777777777)"/><use xlink:href="#T" transform="matrix(1,0,0,1,1278.9620253164558,1850.7159545099905) translate(23.682074652777786 91.54079861111111)"/><path d="M1348.47 231.16V1849" stroke="#6db1ff" stroke-width="5" stroke-linecap="round" fill="none"/><path d="M1800 86a6 6 0 0 1 6-6h148a6 6 0 0 1 6 6v108a6 6 0 0 1-6 6h-148a6 6 0 0 1-6-6z" stroke="#6db1ff" stroke-width="5" fill="#edf5ff"/><use xlink:href="#X" transform="matrix(1,0,0,1,1812,92) translate(22.345703125 42.52777777777778)"/><use xlink:href="#Y" transform="matrix(1,0,0,1,1812,92) translate(35.82769097222222 69.41579861111111)"/><path d="M1800 1846a6 6 0 0 1 6-6h149a6 6 0 0 1 6 6v149.28a6 6 0 0 1-6 6h-149a6 6 0 0 1-6-6z" stroke="#6db1ff" stroke-width="5" fill="#edf5ff"/><use xlink:href="#Z" transform="matrix(1,0,0,1,1812.0000000000002,1852) translate(23.345703125 64.65277777777777)"/><use xlink:href="#aa" transform="matrix(1,0,0,1,1812.0000000000002,1852) translate(36.82769097222222 91.54079861111111)"/><path d="M1871.77 204.28V1859" stroke="#6db1ff" stroke-width="5" stroke-linecap="round" fill="none"/><path d="M2240 106a6 6 0 0 1 6-6h148a6 6 0 0 1 6 6v108a6 6 0 0 1-6 6h-148a6 6 0 0 1-6-6z" stroke="#6db1ff" stroke-width="5" fill="#edf5ff"/><use xlink:href="#ab" transform="matrix(1,0,0,1,2252,112) translate(2.1796875 42.52777777777778)"/><use xlink:href="#ac" transform="matrix(1,0,0,1,2252,112) translate(107.25781249999999 42.52777777777778)"/><use xlink:href="#ad" transform="matrix(1,0,0,1,2252,112) translate(29.311848958333336 69.41579861111111)"/><path d="M2233.04 1844.72a6 6 0 0 1 6-6h149a6 6 0 0 1 6 6V1994a6 6 0 0 1-6 6h-149a6 6 0 0 1-6-6z" stroke="#6db1ff" stroke-width="5" fill="#edf5ff"/><use xlink:href="#ae" transform="matrix(1,0,0,1,2245.0379746835442,1850.7159545099905) translate(3.1796875 64.65277777777777)"/><use xlink:href="#af" transform="matrix(1,0,0,1,2245.0379746835442,1850.7159545099905) translate(108.25781249999999 64.65277777777777)"/><use xlink:href="#ag" transform="matrix(1,0,0,1,2245.0379746835442,1850.7159545099905) translate(30.311848958333336 91.54079861111111)"/><path d="M2314.55 231.16V1859" stroke="#6db1ff" stroke-width="5" stroke-linecap="round" fill="none"/><path d="M2700 106a6 6 0 0 1 6-6h268a6 6 0 0 1 6 6v108a6 6 0 0 1-6 6h-268a6 6 0 0 1-6-6z" stroke="#6db1ff" stroke-width="5" fill="#edf5ff"/><use xlink:href="#ah" transform="matrix(1,0,0,1,2712,112.00000000000034) translate(-1.3131510416666288 56.08376736111111)"/><path d="M2640 1844.72a6 6 0 0 1 6-6h248a6 6 0 0 1 6 6V1994a6 6 0 0 1-6 6h-248a6 6 0 0 1-6-6z" stroke="#6db1ff" stroke-width="5" fill="#edf5ff"/><use xlink:href="#ai" transform="matrix(1,0,0,1,2652,1850.715954509991) translate(-11.313151041666629 77.08376736111111)"/><path d="M2797.6 231.16V1859" stroke="#6db1ff" stroke-width="5" stroke-linecap="round" fill="none"/><path d="M3180 106a6 6 0 0 1 6-6h208a6 6 0 0 1 6 6v108a6 6 0 0 1-6 6h-208a6 6 0 0 1-6-6z" stroke="#6db1ff" stroke-width="5" fill="#edf5ff"/><use xlink:href="#aj" transform="matrix(1,0,0,1,3192,112) translate(10.662760416666671 57.52777777777778)"/><path d="M3179 1844.72a6 6 0 0 1 6-6h209a6 6 0 0 1 6 6V1994a6 6 0 0 1-6 6h-209a6 6 0 0 1-6-6z" stroke="#6db1ff" stroke-width="5" fill="#edf5ff"/><use xlink:href="#aj" transform="matrix(1,0,0,1,3190.987341772152,1850.7159545099905) translate(11.662760416666671 77.59027777777777)"/><path d="M3260.5 231.16V1869M261 234v1605" stroke="#6db1ff" stroke-width="5" stroke-linecap="round" fill="none"/><path d="M-305 320.56h-88.5a6 6 0 0 0-6 6v40.7a6 6 0 0 1-6 6H-494" stroke="#5e5e5e" stroke-width="5" fill="none"/><path d="M-302.5 320.52l.1 2.5h-2.67v-4.94h2.72zM-493.94 375.74h-2.56v-4.95h2.56z" stroke="#5e5e5e" stroke-width=".05" fill="#5e5e5e"/><path d="M-75 320.56H84.5a6 6 0 0 1 6 6v50.24a6 6 0 0 0 6 6h135" stroke="#5e5e5e" stroke-width="5" fill="none"/><path d="M-74.93 323.03h-2.72l.15-2.44-.1-2.52h2.67z" stroke="#5e5e5e" stroke-width=".05" fill="#5e5e5e"/><path d="M253.5 382.8L234 394.05v-22.5z" stroke="#5e5e5e" stroke-width="5" fill="#5e5e5e"/><path d="M376 380H222.5" stroke="#5e5e5e" stroke-width="5" fill="none"/><path d="M378.5 379.97l.1 2.5h-2.67v-4.95h2.72z" stroke="#5e5e5e" stroke-width=".05" fill="#5e5e5e"/><path d="M222.56 380H220M666 380h40.9a6 6 0 0 1 6 6v81.7a6 6 0 0 0 6 6h11.42" stroke="#5e5e5e" stroke-width="5" fill="none"/><path d="M666.07 382.48h-2.72l.15-2.45-.1-2.5h2.67z" stroke="#5e5e5e" stroke-width=".05" fill="#5e5e5e"/><path d="M754.2 473.7l-21.38 6.97v-13.9z" stroke="#5e5e5e" stroke-width="5" fill="#5e5e5e"/><path d="M1605 446.5h346.28a6 6 0 0 1 6 6v102.77a6 6 0 0 0 6 6h316.78" stroke="#5e5e5e" stroke-width="5" fill="none"/><path d="M1605.07 448.98h-2.72l.15-2.44-.1-2.5h2.67z" stroke="#5e5e5e" stroke-width=".05" fill="#5e5e5e"/><path d="M2303.96 561.27l-21.4 6.96v-13.9z" stroke="#5e5e5e" stroke-width="5" fill="#5e5e5e"/><path d="M1605 610h346.28a6 6 0 0 1 6 6v125.62a6 6 0 0 0 6 6h316.78" stroke="#5e5e5e" stroke-width="5" fill="none"/><path d="M1605.07 612.48h-2.72l.15-2.44-.1-2.5h2.67z" stroke="#5e5e5e" stroke-width=".05" fill="#5e5e5e"/><path d="M2303.96 747.62l-21.4 6.95v-13.9z" stroke="#5e5e5e" stroke-width="5" fill="#5e5e5e"/><path d="M1905 880h196.28a6 6 0 0 1 6 6v71.03a6 6 0 0 0 6 6h166.78" stroke="#5e5e5e" stroke-width="5" fill="none"/><path d="M1905.07 882.48h-2.72l.15-2.45-.1-2.5h2.67z" stroke="#5e5e5e" stroke-width=".05" fill="#5e5e5e"/><path d="M2303.96 963.03l-21.4 6.96v-13.92z" stroke="#5e5e5e" stroke-width="5" fill="#5e5e5e"/><path d="M1555 1031.64h-94.76a6 6 0 0 0-6 6v98.17a6 6 0 0 1-6 6h-65.28" stroke="#5e5e5e" stroke-width="5" fill="none"/><path d="M1557.5 1031.6l.1 2.5h-2.67v-4.94h2.72z" stroke="#5e5e5e" stroke-width=".05" fill="#5e5e5e"/><path d="M1359.07 1141.8l21.4-6.94v13.9z" stroke="#5e5e5e" stroke-width="5" fill="#5e5e5e"/><path d="M1905 1160h196.28a6 6 0 0 1 6 6v61a6 6 0 0 0 6 6h166.78" stroke="#5e5e5e" stroke-width="5" fill="none"/><path d="M1905.07 1162.47h-2.72l.15-2.44-.1-2.5h2.67z" stroke="#5e5e5e" stroke-width=".05" fill="#5e5e5e"/><path d="M2303.96 1233l-21.4 6.96v-13.9z" stroke="#5e5e5e" stroke-width="5" fill="#5e5e5e"/><path d="M765 840h283.24a6 6 0 0 1 6 6v78.9a6 6 0 0 0 6 6H1314" stroke="#5e5e5e" stroke-width="5" fill="none"/><path d="M765.07 842.48h-2.72l.15-2.45-.1-2.5h2.67z" stroke="#5e5e5e" stroke-width=".05" fill="#5e5e5e"/><path d="M1337.88 930.9l-21.4 6.94v-13.9z" stroke="#5e5e5e" stroke-width="5" fill="#5e5e5e"/><path d="M355 620h-38.5a6 6 0 0 0-6 6v119.63a6 6 0 0 1-6 6h-9" stroke="#5e5e5e" stroke-width="5" fill="none"/><path d="M357.5 619.97l.1 2.5h-2.67v-4.95h2.72z" stroke="#5e5e5e" stroke-width=".05" fill="#5e5e5e"/><path d="M271.6 751.63l21.4-6.95v13.9z" stroke="#5e5e5e" stroke-width="5" fill="#5e5e5e"/><path d="M-277.04 780h-102.48a6 6 0 0 0-6 6v65.98a6 6 0 0 1-6 6h-73" stroke="#5e5e5e" stroke-width="5" fill="none"/><path d="M-274.54 779.97l.1 2.5h-2.66v-4.95h2.72z" stroke="#5e5e5e" stroke-width=".05" fill="#5e5e5e"/><path d="M-488.4 857.98l21.4-6.95v13.9z" stroke="#5e5e5e" stroke-width="5" fill="#5e5e5e"/><path d="M-1 880h122.5a6 6 0 0 1 6 6v70.37a6 6 0 0 0 6 6h93" stroke="#5e5e5e" stroke-width="5" fill="none"/><path d="M-.95 882.48h-2.72l.16-2.45-.1-2.5h2.65z" stroke="#5e5e5e" stroke-width=".05" fill="#5e5e5e"/><path d="M250.4 962.37l-21.4 6.95v-13.9z" stroke="#5e5e5e" stroke-width="5" fill="#5e5e5e"/><path d="M755 1080H516.5a6 6 0 0 0-6 6v170.06a6 6 0 0 1-6 6h-209" stroke="#5e5e5e" stroke-width="5" fill="none"/><path d="M757.5 1079.97l.1 2.5h-2.67v-4.94h2.72z" stroke="#5e5e5e" stroke-width=".05" fill="#5e5e5e"/><path d="M271.6 1262.06l21.4-6.95v13.9z" stroke="#5e5e5e" stroke-width="5" fill="#5e5e5e"/><path d="M1085 1260h384.88a6 6 0 0 1 6 6v141.47a6 6 0 0 0 6 6h355.4" stroke="#5e5e5e" stroke-width="5" fill="none"/><path d="M1085.07 1262.47h-2.72l.15-2.44-.1-2.5h2.67z" stroke="#5e5e5e" stroke-width=".05" fill="#5e5e5e"/><path d="M1861.18 1413.47l-21.4 6.95v-13.9z" stroke="#5e5e5e" stroke-width="5" fill="#5e5e5e"/><path d="M-285 1240h-98.5a6 6 0 0 0-6 6v115.08a6 6 0 0 1-6 6h-69" stroke="#5e5e5e" stroke-width="5" fill="none"/><path d="M-282.5 1239.97l.1 2.5h-2.67v-4.94h2.72z" stroke="#5e5e5e" stroke-width=".05" fill="#5e5e5e"/><path d="M-488.4 1367.08l21.4-6.96v13.9z" stroke="#5e5e5e" stroke-width="5" fill="#5e5e5e"/><path d="M-14.33 1340h129.16a6 6 0 0 1 6 6v125.35a6 6 0 0 0 6 6h99.68" stroke="#5e5e5e" stroke-width="5" fill="none"/><path d="M-14.27 1342.47h-2.7l.14-2.44-.1-2.5h2.66z" stroke="#5e5e5e" stroke-width=".05" fill="#5e5e5e"/><path d="M250.4 1477.35l-21.4 6.95v-13.9z" stroke="#5e5e5e" stroke-width="5" fill="#5e5e5e"/><path d="M2278.16 1320h9.7a6 6 0 0 1 6 6v118.2" stroke="#5e5e5e" stroke-width="5" fill="none"/><path d="M2278.22 1322.47h-2.7l.14-2.44-.1-2.5h2.66z" stroke="#5e5e5e" stroke-width=".05" fill="#5e5e5e"/><path d="M2305.6 1453.1l-21.25-7.4 8.4-11.07z" stroke="#5e5e5e" stroke-width="5" fill="#5e5e5e"/><path d="M1915 1440h2.5" stroke="#5e5e5e" stroke-width="5" fill="none"/><path d="M1917.5 1439.97l.1 2.5h-2.67v-4.94h2.72z" stroke="#5e5e5e" stroke-width=".05" fill="#5e5e5e"/><path d="M1908.1 1440l21.4-6.95v13.9z" stroke="#5e5e5e" stroke-width="5" fill="#5e5e5e"/><path d="M895 1500H586.5a6 6 0 0 0-6 6v123.2a6 6 0 0 1-6 6h-279" stroke="#5e5e5e" stroke-width="5" fill="none"/><path d="M897.5 1499.97l.1 2.5h-2.67v-4.94h2.72z" stroke="#5e5e5e" stroke-width=".05" fill="#5e5e5e"/><path d="M271.6 1635.2l21.4-6.95v13.9z" stroke="#5e5e5e" stroke-width="5" fill="#5e5e5e"/><path d="M-365 1560h-63" stroke="#5e5e5e" stroke-width="5" fill="none"/><path d="M-362.5 1559.97l.1 2.5h-2.67v-4.94h2.72z" stroke="#5e5e5e" stroke-width=".05" fill="#5e5e5e"/><path d="M-451.9 1560l21.4-6.95v13.9z" stroke="#5e5e5e" stroke-width="5" fill="#5e5e5e"/><path d="M3225 1540h2.5" stroke="#5e5e5e" stroke-width="5" fill="none"/><path d="M3225.07 1542.47h-2.72l.15-2.44-.1-2.5h2.67z" stroke="#5e5e5e" stroke-width=".05" fill="#5e5e5e"/><path d="M3249.92 1541.1l-21.72 5.9.7-13.9z" stroke="#5e5e5e" stroke-width="5" fill="#5e5e5e"/><path d="M1425.12 1720H471.56a6 6 0 0 0-6 6v20.92a6 6 0 0 1-6 6H-464.5" stroke="#5e5e5e" stroke-width="5" fill="none"/><path d="M1427.62 1719.97l.1 2.5h-2.66v-4.94h2.7z" stroke="#5e5e5e" stroke-width=".05" fill="#5e5e5e"/><path d="M-488.4 1752.92l21.4-6.96v13.9z" stroke="#5e5e5e" stroke-width="5" fill="#5e5e5e"/><path d="M1795.12 1720h729.44a.75.75 0 0 1 .75.75.75.75 0 0 0 .76.75H3226" stroke="#5e5e5e" stroke-width="5" fill="none"/><path d="M1795.2 1722.47h-2.73l.15-2.44-.1-2.5h2.67z" stroke="#5e5e5e" stroke-width=".05" fill="#5e5e5e"/><path d="M3249.9 1721.5l-21.4 6.95v-13.9z" stroke="#5e5e5e" stroke-width="5" fill="#5e5e5e"/><defs><path d="M763 24c-353 0-583-224-583-531v-983h190v968c0 214 149 370 393 370 243 0 391-156 391-370v-968h190v983c0 307-230 531-581 531" id="ak"/><path d="M538 24C308 24 148-78 108-271l171-41c32 123 123 178 257 178 156 0 256-77 256-169 0-77-54-128-164-154l-186-44c-203-48-300-148-300-305 0-192 176-326 414-326 230 0 351 112 402 269l-163 42c-31-80-94-158-238-158-133 0-233 69-233 162 0 83 57 129 188 160l169 40c203 48 298 149 298 302 0 196-179 339-441 339" id="al"/><path d="M537 14c-226 0-379-139-379-422v-710h180v695c0 172 97 275 253 275 160 0 281-109 281-300v-670h181V0H879v-209C806-46 684 14 537 14" id="am"/><path d="M471 26C259 26 90-98 90-318c0-256 228-303 435-329 202-27 287-16 287-108 0-139-79-219-234-219-161 0-248 86-283 164l-173-57c86-203 278-265 451-265 150 0 419 46 419 395V0H815v-152h-12C765-73 660 26 471 26zm31-159c199 0 310-134 310-271v-155c-30 35-226 55-295 64-131 17-246 59-246 186 0 116 97 176 231 176" id="an"/><path d="M158 0v-1118h174v172h12c41-113 157-188 290-188 26 0 70 2 91 3v181c-11-2-60-10-108-10-161 0-279 109-279 260V0H158" id="ao"/><path d="M158 0v-1118h180V0H158zm91-1301c-68 0-125-53-125-119s57-119 125-119c69 0 126 53 126 119s-57 119-126 119" id="ap"/><path d="M613 24c-304 0-509-231-509-576 0-350 205-580 509-580 305 0 511 230 511 580 0 345-206 576-511 576zm0-161c226 0 329-195 329-415 0-222-103-419-329-419-223 0-326 196-326 419 0 220 103 415 326 415" id="aq"/><g id="a"><use transform="matrix(0.010850694444444444,0,0,0.010850694444444444,0,0)" xlink:href="#ak"/><use transform="matrix(0.010850694444444444,0,0,0.010850694444444444,16.536458333333332,0)" xlink:href="#al"/><use transform="matrix(0.010850694444444444,0,0,0.010850694444444444,28.266059027777775,0)" xlink:href="#am"/><use transform="matrix(0.010850694444444444,0,0,0.010850694444444444,41.40625,0)" xlink:href="#an"/><use transform="matrix(0.010850694444444444,0,0,0.010850694444444444,53.88454861111112,0)" xlink:href="#ao"/><use transform="matrix(0.010850694444444444,0,0,0.010850694444444444,62.59765625,0)" xlink:href="#ap"/><use transform="matrix(0.010850694444444444,0,0,0.010850694444444444,67.97960069444444,0)" xlink:href="#aq"/></g><g id="b"><use transform="matrix(0.010850694444444444,0,0,0.010850694444444444,0,0)" xlink:href="#ak"/><use transform="matrix(0.010850694444444444,0,0,0.010850694444444444,16.536458333333332,0)" xlink:href="#al"/><use transform="matrix(0.010850694444444444,0,0,0.010850694444444444,28.266059027777775,0)" xlink:href="#am"/><use transform="matrix(0.010850694444444444,0,0,0.010850694444444444,41.40625,0)" xlink:href="#an"/><use transform="matrix(0.010850694444444444,0,0,0.010850694444444444,53.88454861111112,0)" xlink:href="#ao"/><use transform="matrix(0.010850694444444444,0,0,0.010850694444444444,62.59765625,0)" xlink:href="#ap"/><use transform="matrix(0.010850694444444444,0,0,0.010850694444444444,67.97960069444444,0)" xlink:href="#aq"/></g><path d="M52 0l541-1490h220L1361 0h-200l-149-416H398L254 0H52zm404-582h497c-103-290-145-390-251-756-108 377-145 460-246 756" id="ar"/><path d="M180 0v-1490h510c348 0 508 209 508 474 0 266-160 477-507 477H370V0H180zm190-706h312c236 0 327-133 327-310 0-176-91-307-329-307H370v617" id="as"/><path d="M370-1490V0H180v-1490h190" id="at"/><g id="c"><use transform="matrix(0.010850694444444444,0,0,0.010850694444444444,0,0)" xlink:href="#ar"/><use transform="matrix(0.010850694444444444,0,0,0.010850694444444444,15.33203125,0)" xlink:href="#as"/><use transform="matrix(0.010850694444444444,0,0,0.010850694444444444,29.524739583333332,0)" xlink:href="#at"/></g><path d="M789 20c-398 0-667-293-667-764 0-473 273-766 655-766 315 0 558 198 612 487h-196c-61-191-204-311-415-311-262 0-471 207-471 590 0 380 208 588 482 588 249 0 420-165 425-427H828v-166h572v163c0 370-256 606-611 606" id="au"/><path d="M598-1118v154H368v674c0 100 37 144 132 144 23 0 62-6 92-12L629-6c-37 13-88 20-134 20-193 0-307-107-307-290v-688H20v-154h168v-266h180v266h230" id="av"/><path d="M628 24c-324 0-524-230-524-574 0-343 198-582 503-582 237 0 487 146 487 559v75H286c9 234 145 362 343 362 132 0 231-58 273-172l174 48C1024-91 857 24 628 24zM287-650h624c-17-190-120-322-304-322-192 0-309 151-320 322" id="aw"/><path d="M409 0L70-1118h191c89 329 165 560 243 925 75-353 154-601 240-925h192c85 325 161 564 235 922 77-354 157-598 244-922h191L1267 0h-179c-86-307-176-590-250-913C763-588 675-308 588 0H409" id="ax"/><path d="M140 405l46-156c120 36 205 19 263-150l32-93L54-1118h197c107 313 237 620 324 950 87-331 219-637 326-950h196L606 167c-68 178-176 259-334 259-64 0-113-12-132-21" id="ay"/><g id="d"><use transform="matrix(0.010850694444444444,0,0,0.010850694444444444,0,0)" xlink:href="#au"/><use transform="matrix(0.010850694444444444,0,0,0.010850694444444444,16.57986111111111,0)" xlink:href="#an"/><use transform="matrix(0.010850694444444444,0,0,0.010850694444444444,29.05815972222222,0)" xlink:href="#av"/><use transform="matrix(0.010850694444444444,0,0,0.010850694444444444,36.11111111111111,0)" xlink:href="#aw"/><use transform="matrix(0.010850694444444444,0,0,0.010850694444444444,48.66536458333333,0)" xlink:href="#ax"/><use transform="matrix(0.010850694444444444,0,0,0.010850694444444444,66.85112847222221,0)" xlink:href="#an"/><use transform="matrix(0.010850694444444444,0,0,0.010850694444444444,79.00390625,0)" xlink:href="#ay"/></g><path d="M180 0v-1490h908v168H370v486h669v168H370v500h727V0H180" id="az"/><path d="M98-1322v-168h1126v168H757V0H567v-1322H98" id="aA"/><path d="M692-1560L212 224H46l480-1784h166" id="aB"/><path d="M577 24c-279 0-473-224-473-580 0-354 195-576 474-576 218 0 287 134 324 193h14v-551h180V0H922v-173h-20C865-111 790 24 577 24zm27-161c203 0 314-172 314-421 0-247-108-413-314-413-212 0-317 181-317 413 0 235 108 421 317 421" id="aC"/><path d="M678-1118v154H420V0H240v-964H20v-154h220v-149c0-194 155-293 318-293 85 0 141 18 168 30l-50 154c-19-6-47-17-97-17-111 0-159 58-159 166v109h258" id="aD"/><path d="M338-1490V0H158v-1490h180" id="aE"/><g id="e"><use transform="matrix(0.010850694444444444,0,0,0.010850694444444444,0,0)" xlink:href="#au"/><use transform="matrix(0.010850694444444444,0,0,0.010850694444444444,16.57986111111111,0)" xlink:href="#az"/><use transform="matrix(0.010850694444444444,0,0,0.010850694444444444,29.93706597222222,0)" xlink:href="#aA"/><use transform="matrix(0.010850694444444444,0,0,0.010850694444444444,42.52387152777778,0)" xlink:href="#aB"/><use transform="matrix(0.010850694444444444,0,0,0.010850694444444444,50.53168402777778,0)" xlink:href="#aC"/><use transform="matrix(0.010850694444444444,0,0,0.010850694444444444,64.13845486111111,0)" xlink:href="#aw"/><use transform="matrix(0.010850694444444444,0,0,0.010850694444444444,77.09418402777779,0)" xlink:href="#aD"/><use transform="matrix(0.010850694444444444,0,0,0.010850694444444444,84.97178819444444,0)" xlink:href="#an"/><use transform="matrix(0.010850694444444444,0,0,0.010850694444444444,97.45008680555556,0)" xlink:href="#am"/><use transform="matrix(0.010850694444444444,0,0,0.010850694444444444,110.59027777777777,0)" xlink:href="#aE"/><use transform="matrix(0.010850694444444444,0,0,0.010850694444444444,116.29774305555556,0)" xlink:href="#av"/><use transform="matrix(0.010850694444444444,0,0,0.010850694444444444,123.56770833333331,0)" xlink:href="#aB"/></g><path d="M338-670V0H158v-1118h173l1 207c72-158 192-221 342-221 226 0 378 139 378 422V0H872v-695c0-172-96-275-252-275-161 0-282 109-282 300" id="aF"/><path d="M481 0L54-1118h197c107 314 236 620 325 951 87-331 217-637 324-951h197L670 0H481" id="aG"/><g id="f"><use transform="matrix(0.010850694444444444,0,0,0.010850694444444444,0,0)" xlink:href="#az"/><use transform="matrix(0.010850694444444444,0,0,0.010850694444444444,13.35720486111111,0)" xlink:href="#aF"/><use transform="matrix(0.010850694444444444,0,0,0.010850694444444444,26.161024305555554,0)" xlink:href="#aG"/><use transform="matrix(0.010850694444444444,0,0,0.010850694444444444,38.65017361111111,0)" xlink:href="#ap"/><use transform="matrix(0.010850694444444444,0,0,0.010850694444444444,44.03211805555555,0)" xlink:href="#an"/><use transform="matrix(0.010850694444444444,0,0,0.010850694444444444,56.51041666666666,0)" xlink:href="#ao"/></g><path d="M158 418v-1536h174v179h20c37-59 106-193 324-193 279 0 474 222 474 576 0 356-194 580-473 580-213 0-288-135-325-197h-14v591H158zm492-555c209 0 317-186 317-421 0-232-105-413-317-413-206 0-314 166-314 413 0 249 111 421 314 421" id="aH"/><g id="g"><use transform="matrix(0.010850694444444444,0,0,0.010850694444444444,0,0)" xlink:href="#ao"/><use transform="matrix(0.010850694444444444,0,0,0.010850694444444444,7.996961805555555,0)" xlink:href="#aw"/><use transform="matrix(0.010850694444444444,0,0,0.010850694444444444,20.95269097222222,0)" xlink:href="#al"/><use transform="matrix(0.010850694444444444,0,0,0.010850694444444444,32.682291666666664,0)" xlink:href="#aH"/><use transform="matrix(0.010850694444444444,0,0,0.010850694444444444,46.2890625,0)" xlink:href="#am"/><use transform="matrix(0.010850694444444444,0,0,0.010850694444444444,59.42925347222222,0)" xlink:href="#aw"/><use transform="matrix(0.010850694444444444,0,0,0.010850694444444444,72.38498263888889,0)" xlink:href="#al"/><use transform="matrix(0.010850694444444444,0,0,0.010850694444444444,84.11458333333333,0)" xlink:href="#av"/><use transform="matrix(0.010850694444444444,0,0,0.010850694444444444,91.49305555555556,0)" xlink:href="#an"/></g><path d="M784 20c-382 0-662-292-662-764 0-473 280-766 662-766s660 293 660 766c0 472-278 764-660 764zm0-176c266 0 475-207 475-588 0-383-209-590-475-590-268 0-477 208-477 590 0 380 209 588 477 588" id="aI"/><path d="M657 26c-323 0-524-166-541-416h195c15 169 171 246 346 246 202 0 356-106 356-265 5-203-294-238-475-293-239-73-380-191-380-389 0-252 224-419 512-419 294 0 499 171 508 396H992c-17-145-151-228-328-228-193 0-321 102-321 242 0 156 175 211 284 241l149 41c160 44 422 134 422 412 0 244-197 432-541 432" id="aJ"/><path d="M218-607c0-325 108-727 258-974h175c-155 315-250 682-250 974 0 265 78 531 250 886H476C306-10 218-315 218-607" id="aK"/><path d="M611 442c-248 0-391-105-460-228l146-94c47 65 117 165 314 165 178 0 307-82 307-266v-224h-17C863-141 792-18 576-18c-268 0-472-195-472-546 0-346 197-568 476-568 216 0 288 133 326 193h17v-179h175V29c0 289-215 413-487 413zm-5-620c203 0 314-146 314-390 0-237-108-403-314-403-213 0-319 180-319 403 0 230 109 390 319 390" id="aL"/><path d="M96 279C273-86 346-350 346-607c0-292-95-659-250-974h175c150 246 258 650 258 974 0 297-91 602-258 886H96" id="aM"/><g id="h"><use transform="matrix(0.010850694444444444,0,0,0.010850694444444444,0,0)" xlink:href="#as"/><use transform="matrix(0.010850694444444444,0,0,0.010850694444444444,14.192708333333332,0)" xlink:href="#aI"/><use transform="matrix(0.010850694444444444,0,0,0.010850694444444444,31.184895833333332,0)" xlink:href="#aJ"/><use transform="matrix(0.010850694444444444,0,0,0.010850694444444444,45.44270833333333,0)" xlink:href="#aA"/><use transform="matrix(0.010850694444444444,0,0,0.010850694444444444,58.029513888888886,0)" xlink:href="#aB"/><use transform="matrix(0.010850694444444444,0,0,0.010850694444444444,66.03732638888889,0)" xlink:href="#aC"/><use transform="matrix(0.010850694444444444,0,0,0.010850694444444444,79.64409722222221,0)" xlink:href="#aw"/><use transform="matrix(0.010850694444444444,0,0,0.010850694444444444,92.59982638888889,0)" xlink:href="#aD"/><use transform="matrix(0.010850694444444444,0,0,0.010850694444444444,100.47743055555556,0)" xlink:href="#an"/><use transform="matrix(0.010850694444444444,0,0,0.010850694444444444,112.95572916666666,0)" xlink:href="#am"/><use transform="matrix(0.010850694444444444,0,0,0.010850694444444444,126.09592013888889,0)" xlink:href="#aE"/><use transform="matrix(0.010850694444444444,0,0,0.010850694444444444,131.80338541666666,0)" xlink:href="#av"/><use transform="matrix(0.010850694444444444,0,0,0.010850694444444444,139.07335069444443,0)" xlink:href="#aB"/><use transform="matrix(0.010850694444444444,0,0,0.010850694444444444,147.08116319444443,0)" xlink:href="#aK"/><use transform="matrix(0.010850694444444444,0,0,0.010850694444444444,155.18663194444443,0)" xlink:href="#ao"/><use transform="matrix(0.010850694444444444,0,0,0.010850694444444444,163.18359374999997,0)" xlink:href="#aw"/><use transform="matrix(0.010850694444444444,0,0,0.010850694444444444,176.13932291666663,0)" xlink:href="#aL"/><use transform="matrix(0.010850694444444444,0,0,0.010850694444444444,189.76779513888883,0)" xlink:href="#ap"/><use transform="matrix(0.010850694444444444,0,0,0.010850694444444444,195.14973958333331,0)" xlink:href="#al"/><use transform="matrix(0.010850694444444444,0,0,0.010850694444444444,206.87934027777777,0)" xlink:href="#av"/><use transform="matrix(0.010850694444444444,0,0,0.010850694444444444,214.14930555555554,0)" xlink:href="#ao"/><use transform="matrix(0.010850694444444444,0,0,0.010850694444444444,222.14626736111111,0)" xlink:href="#aq"/><use transform="matrix(0.010850694444444444,0,0,0.010850694444444444,235.22135416666663,0)" xlink:href="#aM"/></g><g id="i"><use transform="matrix(0.010850694444444444,0,0,0.010850694444444444,0,0)" xlink:href="#az"/><use transform="matrix(0.010850694444444444,0,0,0.010850694444444444,13.35720486111111,0)" xlink:href="#aF"/><use transform="matrix(0.010850694444444444,0,0,0.010850694444444444,26.161024305555554,0)" xlink:href="#aG"/><use transform="matrix(0.010850694444444444,0,0,0.010850694444444444,38.65017361111111,0)" xlink:href="#ap"/><use transform="matrix(0.010850694444444444,0,0,0.010850694444444444,44.03211805555555,0)" xlink:href="#an"/><use transform="matrix(0.010850694444444444,0,0,0.010850694444444444,56.51041666666666,0)" xlink:href="#ao"/></g><g id="j"><use transform="matrix(0.010850694444444444,0,0,0.010850694444444444,0,0)" xlink:href="#ao"/><use transform="matrix(0.010850694444444444,0,0,0.010850694444444444,7.996961805555555,0)" xlink:href="#aw"/><use transform="matrix(0.010850694444444444,0,0,0.010850694444444444,20.95269097222222,0)" xlink:href="#al"/><use transform="matrix(0.010850694444444444,0,0,0.010850694444444444,32.682291666666664,0)" xlink:href="#aH"/><use transform="matrix(0.010850694444444444,0,0,0.010850694444444444,46.2890625,0)" xlink:href="#am"/><use transform="matrix(0.010850694444444444,0,0,0.010850694444444444,59.42925347222222,0)" xlink:href="#aw"/><use transform="matrix(0.010850694444444444,0,0,0.010850694444444444,72.38498263888889,0)" xlink:href="#al"/><use transform="matrix(0.010850694444444444,0,0,0.010850694444444444,84.11458333333333,0)" xlink:href="#av"/><use transform="matrix(0.010850694444444444,0,0,0.010850694444444444,91.49305555555556,0)" xlink:href="#an"/></g><path d="M613 24c-304 0-509-231-509-576 0-350 205-580 509-580 216 0 392 114 453 309l-173 49c-33-115-133-197-280-197-223 0-326 196-326 419 0 220 103 415 326 415 150 0 252-85 285-206l172 49C1010-95 832 24 613 24" id="aN"/><path d="M158 0v-1490h180v865h22l478-493h223L593-638 1096 0H865L456-523 338-412V0H158" id="aO"/><path d="M383-449c-3-277 82-343 222-425 88-53 156-134 156-250 0-139-108-227-243-227-118 0-235 70-246 236H82c10-251 200-395 436-395 259 0 427 165 427 393 0 161-74 273-203 352-132 80-180 132-178 316H383zm93 462c-75 0-135-60-135-134 0-75 60-135 135-135 74 0 134 60 134 135 0 74-60 134-134 134" id="aP"/><path d="M226-283v-166h904v166H226zm0-434v-166h904v166H226" id="aQ"/><g id="k"><use transform="matrix(0.010850694444444444,0,0,0.010850694444444444,0,0)" xlink:href="#au"/><use transform="matrix(0.010850694444444444,0,0,0.010850694444444444,16.57986111111111,0)" xlink:href="#az"/><use transform="matrix(0.010850694444444444,0,0,0.010850694444444444,29.93706597222222,0)" xlink:href="#aA"/><use transform="matrix(0.010850694444444444,0,0,0.010850694444444444,42.52387152777778,0)" xlink:href="#aB"/><use transform="matrix(0.010850694444444444,0,0,0.010850694444444444,50.53168402777778,0)" xlink:href="#aC"/><use transform="matrix(0.010850694444444444,0,0,0.010850694444444444,64.13845486111111,0)" xlink:href="#aw"/><use transform="matrix(0.010850694444444444,0,0,0.010850694444444444,77.09418402777779,0)" xlink:href="#aD"/><use transform="matrix(0.010850694444444444,0,0,0.010850694444444444,84.97178819444444,0)" xlink:href="#an"/><use transform="matrix(0.010850694444444444,0,0,0.010850694444444444,97.45008680555556,0)" xlink:href="#am"/><use transform="matrix(0.010850694444444444,0,0,0.010850694444444444,110.59027777777777,0)" xlink:href="#aE"/><use transform="matrix(0.010850694444444444,0,0,0.010850694444444444,116.29774305555556,0)" xlink:href="#av"/><use transform="matrix(0.010850694444444444,0,0,0.010850694444444444,123.56770833333331,0)" xlink:href="#aB"/><use transform="matrix(0.010850694444444444,0,0,0.010850694444444444,131.57552083333331,0)" xlink:href="#aL"/><use transform="matrix(0.010850694444444444,0,0,0.010850694444444444,145.20399305555554,0)" xlink:href="#aw"/><use transform="matrix(0.010850694444444444,0,0,0.010850694444444444,158.1597222222222,0)" xlink:href="#av"/><use transform="matrix(0.010850694444444444,0,0,0.010850694444444444,164.68098958333331,0)" xlink:href="#aA"/><use transform="matrix(0.010850694444444444,0,0,0.010850694444444444,179.02560763888883,0)" xlink:href="#ap"/><use transform="matrix(0.010850694444444444,0,0,0.010850694444444444,184.40755208333331,0)" xlink:href="#aN"/><use transform="matrix(0.010850694444444444,0,0,0.010850694444444444,197.10286458333331,0)" xlink:href="#aO"/><use transform="matrix(0.010850694444444444,0,0,0.010850694444444444,208.7999131944444,0)" xlink:href="#aw"/><use transform="matrix(0.010850694444444444,0,0,0.010850694444444444,221.75564236111106,0)" xlink:href="#av"/><use transform="matrix(0.010850694444444444,0,0,0.010850694444444444,229.02560763888883,0)" xlink:href="#aP"/><use transform="matrix(0.010850694444444444,0,0,0.010850694444444444,240.38628472222217,0)" xlink:href="#aQ"/></g><path d="M158 0v-1118h175l1 205c55-151 181-225 313-225 147 0 245 90 285 228 53-141 190-228 352-228 194 0 352 125 352 384V0h-181v-749c0-161-105-225-225-225-151 0-243 103-243 244V0H807v-767c0-124-93-207-219-207-131 0-250 92-250 270V0H158" id="aR"/><path d="M613 24c-304 0-509-231-509-576 0-350 205-580 509-580 305 0 511 230 511 580 0 345-206 576-511 576zm0-161c226 0 329-195 329-415 0-222-103-419-329-419-223 0-326 196-326 419 0 220 103 415 326 415zm-79-1127l140-294h201l-194 294H534" id="aS"/><g id="l"><use transform="matrix(0.010850694444444444,0,0,0.010850694444444444,0,0)" xlink:href="#ap"/><use transform="matrix(0.010850694444444444,0,0,0.010850694444444444,5.381944444444445,0)" xlink:href="#aF"/><use transform="matrix(0.010850694444444444,0,0,0.010850694444444444,18.51128472222222,0)" xlink:href="#aD"/><use transform="matrix(0.010850694444444444,0,0,0.010850694444444444,26.085069444444443,0)" xlink:href="#aq"/><use transform="matrix(0.010850694444444444,0,0,0.010850694444444444,39.40972222222222,0)" xlink:href="#ao"/><use transform="matrix(0.010850694444444444,0,0,0.010850694444444444,48.12282986111111,0)" xlink:href="#aR"/><use transform="matrix(0.010850694444444444,0,0,0.010850694444444444,67.58897569444444,0)" xlink:href="#an"/><use transform="matrix(0.010850694444444444,0,0,0.010850694444444444,80.06727430555556,0)" xlink:href="#aN"/><use transform="matrix(0.010850694444444444,0,0,0.010850694444444444,92.76258680555556,0)" xlink:href="#ap"/><use transform="matrix(0.010850694444444444,0,0,0.010850694444444444,98.14453125,0)" xlink:href="#aS"/><use transform="matrix(0.010850694444444444,0,0,0.010850694444444444,111.46918402777777,0)" xlink:href="#aF"/></g><g id="m"><use transform="matrix(0.010850694444444444,0,0,0.010850694444444444,0,0)" xlink:href="#aC"/><use transform="matrix(0.010850694444444444,0,0,0.010850694444444444,13.606770833333332,0)" xlink:href="#aw"/><use transform="matrix(0.010850694444444444,0,0,0.010850694444444444,26.5625,0)" xlink:href="#aE"/></g><g id="n"><use transform="matrix(0.010850694444444444,0,0,0.010850694444444444,0,0)" xlink:href="#av"/><use transform="matrix(0.010850694444444444,0,0,0.010850694444444444,7.269965277777778,0)" xlink:href="#ap"/><use transform="matrix(0.010850694444444444,0,0,0.010850694444444444,12.651909722222221,0)" xlink:href="#aN"/><use transform="matrix(0.010850694444444444,0,0,0.010850694444444444,25.34722222222222,0)" xlink:href="#aO"/><use transform="matrix(0.010850694444444444,0,0,0.010850694444444444,37.044270833333336,0)" xlink:href="#aw"/><use transform="matrix(0.010850694444444444,0,0,0.010850694444444444,50,0)" xlink:href="#av"/></g><path d="M157-1118h181V80c1 225-123 350-364 338V252c126 9 184-48 183-172v-1198zm91-183c-68 0-125-53-125-119s57-119 125-119c69 0 126 53 126 119s-57 119-126 119" id="aT"/><g id="o"><use transform="matrix(0.010850694444444444,0,0,0.010850694444444444,0,0)" xlink:href="#az"/><use transform="matrix(0.010850694444444444,0,0,0.010850694444444444,13.35720486111111,0)" xlink:href="#aT"/><use transform="matrix(0.010850694444444444,0,0,0.010850694444444444,18.739149305555557,0)" xlink:href="#aw"/><use transform="matrix(0.010850694444444444,0,0,0.010850694444444444,31.69487847222222,0)" xlink:href="#aN"/><use transform="matrix(0.010850694444444444,0,0,0.010850694444444444,44.39019097222222,0)" xlink:href="#am"/><use transform="matrix(0.010850694444444444,0,0,0.010850694444444444,57.53038194444444,0)" xlink:href="#av"/><use transform="matrix(0.010850694444444444,0,0,0.010850694444444444,64.90885416666666,0)" xlink:href="#an"/><use transform="matrix(0.010850694444444444,0,0,0.010850694444444444,77.38715277777777,0)" xlink:href="#ao"/></g><g id="p"><use transform="matrix(0.010850694444444444,0,0,0.010850694444444444,0,0)" xlink:href="#aD"/><use transform="matrix(0.010850694444444444,0,0,0.010850694444444444,8.22482638888889,0)" xlink:href="#am"/><use transform="matrix(0.010850694444444444,0,0,0.010850694444444444,21.36501736111111,0)" xlink:href="#aF"/><use transform="matrix(0.010850694444444444,0,0,0.010850694444444444,34.494357638888886,0)" xlink:href="#aN"/><use transform="matrix(0.010850694444444444,0,0,0.010850694444444444,47.189670138888886,0)" xlink:href="#ap"/><use transform="matrix(0.010850694444444444,0,0,0.010850694444444444,52.57161458333333,0)" xlink:href="#aS"/><use transform="matrix(0.010850694444444444,0,0,0.010850694444444444,65.8962673611111,0)" xlink:href="#aF"/></g><path d="M180 0v-1490h510c348 0 508 194 508 460 0 198-88 351-276 417L1256 0h-220L726-579c-117 2-238 0-356 1V0H180zm190-747h312c235 0 327-108 327-283 0-177-92-293-329-293H370v576" id="aU"/><g id="q"><use transform="matrix(0.010850694444444444,0,0,0.010850694444444444,0,0)" xlink:href="#aU"/><use transform="matrix(0.010850694444444444,0,0,0.010850694444444444,13.975694444444445,0)" xlink:href="#aw"/><use transform="matrix(0.010850694444444444,0,0,0.010850694444444444,26.931423611111104,0)" xlink:href="#al"/><use transform="matrix(0.010850694444444444,0,0,0.010850694444444444,38.66102430555555,0)" xlink:href="#aH"/><use transform="matrix(0.010850694444444444,0,0,0.010850694444444444,52.267795138888886,0)" xlink:href="#aq"/><use transform="matrix(0.010850694444444444,0,0,0.010850694444444444,65.59244791666666,0)" xlink:href="#aF"/><use transform="matrix(0.010850694444444444,0,0,0.010850694444444444,78.72178819444443,0)" xlink:href="#aC"/><use transform="matrix(0.010850694444444444,0,0,0.010850694444444444,92.32855902777776,0)" xlink:href="#aw"/><use transform="matrix(0.010850694444444444,0,0,0.010850694444444444,105.28428819444441,0)" xlink:href="#ao"/></g><g id="r"><use transform="matrix(0.010850694444444444,0,0,0.010850694444444444,0,0)" xlink:href="#an"/><use transform="matrix(0.010850694444444444,0,0,0.010850694444444444,12.47829861111111,0)" xlink:href="#al"/><use transform="matrix(0.010850694444444444,0,0,0.010850694444444444,24.207899305555554,0)" xlink:href="#ap"/><use transform="matrix(0.010850694444444444,0,0,0.010850694444444444,29.58984375,0)" xlink:href="#aw"/><use transform="matrix(0.010850694444444444,0,0,0.010850694444444444,42.545572916666664,0)" xlink:href="#aF"/><use transform="matrix(0.010850694444444444,0,0,0.010850694444444444,55.67491319444444,0)" xlink:href="#av"/><use transform="matrix(0.010850694444444444,0,0,0.010850694444444444,62.72786458333333,0)" xlink:href="#aq"/><use transform="matrix(0.010850694444444444,0,0,0.010850694444444444,76.05251736111111,0)" xlink:href="#al"/></g><g id="s"><use transform="matrix(0.010850694444444444,0,0,0.010850694444444444,0,0)" xlink:href="#aq"/><use transform="matrix(0.010850694444444444,0,0,0.010850694444444444,13.324652777777777,0)" xlink:href="#aN"/><use transform="matrix(0.010850694444444444,0,0,0.010850694444444444,26.01996527777778,0)" xlink:href="#am"/><use transform="matrix(0.010850694444444444,0,0,0.010850694444444444,39.16015625,0)" xlink:href="#aH"/><use transform="matrix(0.010850694444444444,0,0,0.010850694444444444,52.98394097222221,0)" xlink:href="#an"/><use transform="matrix(0.010850694444444444,0,0,0.010850694444444444,65.46223958333333,0)" xlink:href="#aC"/><use transform="matrix(0.010850694444444444,0,0,0.010850694444444444,79.06901041666666,0)" xlink:href="#aq"/><use transform="matrix(0.010850694444444444,0,0,0.010850694444444444,92.39366319444441,0)" xlink:href="#al"/></g><g id="t"><use transform="matrix(0.010850694444444444,0,0,0.010850694444444444,0,0)" xlink:href="#az"/><use transform="matrix(0.010850694444444444,0,0,0.010850694444444444,13.35720486111111,0)" xlink:href="#aT"/><use transform="matrix(0.010850694444444444,0,0,0.010850694444444444,18.739149305555557,0)" xlink:href="#aw"/><use transform="matrix(0.010850694444444444,0,0,0.010850694444444444,31.69487847222222,0)" xlink:href="#aN"/><use transform="matrix(0.010850694444444444,0,0,0.010850694444444444,44.39019097222222,0)" xlink:href="#am"/><use transform="matrix(0.010850694444444444,0,0,0.010850694444444444,57.53038194444444,0)" xlink:href="#av"/><use transform="matrix(0.010850694444444444,0,0,0.010850694444444444,64.90885416666666,0)" xlink:href="#an"/><use transform="matrix(0.010850694444444444,0,0,0.010850694444444444,77.38715277777777,0)" xlink:href="#ao"/></g><g id="u"><use transform="matrix(0.010850694444444444,0,0,0.010850694444444444,0,0)" xlink:href="#aN"/><use transform="matrix(0.010850694444444444,0,0,0.010850694444444444,12.6953125,0)" xlink:href="#aq"/><use transform="matrix(0.010850694444444444,0,0,0.010850694444444444,26.01996527777778,0)" xlink:href="#aF"/><use transform="matrix(0.010850694444444444,0,0,0.010850694444444444,39.14930555555556,0)" xlink:href="#aD"/><use transform="matrix(0.010850694444444444,0,0,0.010850694444444444,47.37413194444444,0)" xlink:href="#ap"/><use transform="matrix(0.010850694444444444,0,0,0.010850694444444444,52.756076388888886,0)" xlink:href="#ao"/><use transform="matrix(0.010850694444444444,0,0,0.010850694444444444,61.46918402777778,0)" xlink:href="#aR"/><use transform="matrix(0.010850694444444444,0,0,0.010850694444444444,80.9353298611111,0)" xlink:href="#an"/><use transform="matrix(0.010850694444444444,0,0,0.010850694444444444,93.41362847222221,0)" xlink:href="#aN"/><use transform="matrix(0.010850694444444444,0,0,0.010850694444444444,106.10894097222221,0)" xlink:href="#ap"/><use transform="matrix(0.010850694444444444,0,0,0.010850694444444444,111.49088541666666,0)" xlink:href="#aS"/><use transform="matrix(0.010850694444444444,0,0,0.010850694444444444,124.81553819444441,0)" xlink:href="#aF"/></g><g id="v"><use transform="matrix(0.010850694444444444,0,0,0.010850694444444444,0,0)" xlink:href="#aU"/><use transform="matrix(0.010850694444444444,0,0,0.010850694444444444,13.975694444444445,0)" xlink:href="#aw"/><use transform="matrix(0.010850694444444444,0,0,0.010850694444444444,26.931423611111104,0)" xlink:href="#av"/><use transform="matrix(0.010850694444444444,0,0,0.010850694444444444,33.98437499999999,0)" xlink:href="#aq"/><use transform="matrix(0.010850694444444444,0,0,0.010850694444444444,47.30902777777778,0)" xlink:href="#ao"/><use transform="matrix(0.010850694444444444,0,0,0.010850694444444444,56.02213541666666,0)" xlink:href="#aF"/><use transform="matrix(0.010850694444444444,0,0,0.010850694444444444,69.15147569444443,0)" xlink:href="#an"/><use transform="matrix(0.010850694444444444,0,0,0.010850694444444444,81.62977430555554,0)" xlink:href="#ao"/></g><g id="w"><use transform="matrix(0.010850694444444444,0,0,0.010850694444444444,0,0)" xlink:href="#aN"/><use transform="matrix(0.010850694444444444,0,0,0.010850694444444444,12.6953125,0)" xlink:href="#aq"/><use transform="matrix(0.010850694444444444,0,0,0.010850694444444444,26.01996527777778,0)" xlink:href="#aF"/><use transform="matrix(0.010850694444444444,0,0,0.010850694444444444,39.14930555555556,0)" xlink:href="#aD"/><use transform="matrix(0.010850694444444444,0,0,0.010850694444444444,47.37413194444444,0)" xlink:href="#ap"/><use transform="matrix(0.010850694444444444,0,0,0.010850694444444444,52.756076388888886,0)" xlink:href="#ao"/><use transform="matrix(0.010850694444444444,0,0,0.010850694444444444,61.46918402777778,0)" xlink:href="#aR"/><use transform="matrix(0.010850694444444444,0,0,0.010850694444444444,80.9353298611111,0)" xlink:href="#an"/><use transform="matrix(0.010850694444444444,0,0,0.010850694444444444,93.41362847222221,0)" xlink:href="#aN"/><use transform="matrix(0.010850694444444444,0,0,0.010850694444444444,106.10894097222221,0)" xlink:href="#ap"/><use transform="matrix(0.010850694444444444,0,0,0.010850694444444444,111.49088541666666,0)" xlink:href="#aq"/><use transform="matrix(0.010850694444444444,0,0,0.010850694444444444,124.81553819444441,0)" xlink:href="#aF"/></g><g id="x"><use transform="matrix(0.010850694444444444,0,0,0.010850694444444444,0,0)" xlink:href="#aU"/><use transform="matrix(0.010850694444444444,0,0,0.010850694444444444,13.975694444444445,0)" xlink:href="#aw"/><use transform="matrix(0.010850694444444444,0,0,0.010850694444444444,26.931423611111104,0)" xlink:href="#al"/><use transform="matrix(0.010850694444444444,0,0,0.010850694444444444,38.66102430555555,0)" xlink:href="#aH"/><use transform="matrix(0.010850694444444444,0,0,0.010850694444444444,52.267795138888886,0)" xlink:href="#aq"/><use transform="matrix(0.010850694444444444,0,0,0.010850694444444444,65.59244791666666,0)" xlink:href="#aC"/><use transform="matrix(0.010850694444444444,0,0,0.010850694444444444,79.19921874999999,0)" xlink:href="#aw"/><use transform="matrix(0.010850694444444444,0,0,0.010850694444444444,92.15494791666666,0)" xlink:href="#ao"/></g><g id="y"><use transform="matrix(0.010850694444444444,0,0,0.010850694444444444,0,0)" xlink:href="#aC"/><use transform="matrix(0.010850694444444444,0,0,0.010850694444444444,13.606770833333332,0)" xlink:href="#an"/><use transform="matrix(0.010850694444444444,0,0,0.010850694444444444,26.085069444444443,0)" xlink:href="#av"/><use transform="matrix(0.010850694444444444,0,0,0.010850694444444444,33.13802083333333,0)" xlink:href="#aq"/><use transform="matrix(0.010850694444444444,0,0,0.010850694444444444,46.46267361111111,0)" xlink:href="#al"/></g><path d="M180 0v-1490h190v1322h690V0H180" id="aV"/><g id="z"><use transform="matrix(0.010850694444444444,0,0,0.010850694444444444,0,0)" xlink:href="#aV"/><use transform="matrix(0.010850694444444444,0,0,0.010850694444444444,12.565104166666666,0)" xlink:href="#aw"/><use transform="matrix(0.010850694444444444,0,0,0.010850694444444444,25.520833333333332,0)" xlink:href="#aw"/><use transform="matrix(0.010850694444444444,0,0,0.010850694444444444,38.4765625,0)" xlink:href="#ao"/></g><g id="A"><use transform="matrix(0.010850694444444444,0,0,0.010850694444444444,0,0)" xlink:href="#an"/><use transform="matrix(0.010850694444444444,0,0,0.010850694444444444,12.47829861111111,0)" xlink:href="#al"/><use transform="matrix(0.010850694444444444,0,0,0.010850694444444444,24.207899305555554,0)" xlink:href="#ap"/><use transform="matrix(0.010850694444444444,0,0,0.010850694444444444,29.58984375,0)" xlink:href="#aw"/><use transform="matrix(0.010850694444444444,0,0,0.010850694444444444,42.545572916666664,0)" xlink:href="#aF"/><use transform="matrix(0.010850694444444444,0,0,0.010850694444444444,55.67491319444444,0)" xlink:href="#av"/><use transform="matrix(0.010850694444444444,0,0,0.010850694444444444,62.72786458333333,0)" xlink:href="#aq"/><use transform="matrix(0.010850694444444444,0,0,0.010850694444444444,76.05251736111111,0)" xlink:href="#al"/></g><g id="B"><use transform="matrix(0.010850694444444444,0,0,0.010850694444444444,0,0)" xlink:href="#aq"/><use transform="matrix(0.010850694444444444,0,0,0.010850694444444444,13.324652777777777,0)" xlink:href="#aN"/><use transform="matrix(0.010850694444444444,0,0,0.010850694444444444,26.01996527777778,0)" xlink:href="#am"/><use transform="matrix(0.010850694444444444,0,0,0.010850694444444444,39.16015625,0)" xlink:href="#aH"/><use transform="matrix(0.010850694444444444,0,0,0.010850694444444444,52.98394097222221,0)" xlink:href="#an"/><use transform="matrix(0.010850694444444444,0,0,0.010850694444444444,65.46223958333333,0)" xlink:href="#aC"/><use transform="matrix(0.010850694444444444,0,0,0.010850694444444444,79.06901041666666,0)" xlink:href="#aq"/><use transform="matrix(0.010850694444444444,0,0,0.010850694444444444,92.39366319444441,0)" xlink:href="#al"/></g><g id="C"><use transform="matrix(0.010850694444444444,0,0,0.010850694444444444,0,0)" xlink:href="#aC"/><use transform="matrix(0.010850694444444444,0,0,0.010850694444444444,13.606770833333332,0)" xlink:href="#an"/><use transform="matrix(0.010850694444444444,0,0,0.010850694444444444,26.085069444444443,0)" xlink:href="#aq"/><use transform="matrix(0.010850694444444444,0,0,0.010850694444444444,39.40972222222222,0)" xlink:href="#av"/><use transform="matrix(0.010850694444444444,0,0,0.010850694444444444,46.46267361111111,0)" xlink:href="#al"/></g><path d="M600 0L52-1490h200c166 485 304 806 458 1336 156-533 285-846 449-1336h202L819 0H600" id="aW"/><g id="D"><use transform="matrix(0.010850694444444444,0,0,0.010850694444444444,0,0)" xlink:href="#aW"/><use transform="matrix(0.010850694444444444,0,0,0.010850694444444444,14.20355902777778,0)" xlink:href="#aw"/><use transform="matrix(0.010850694444444444,0,0,0.010850694444444444,27.159288194444443,0)" xlink:href="#ao"/><use transform="matrix(0.010850694444444444,0,0,0.010850694444444444,35.87239583333333,0)" xlink:href="#ap"/><use transform="matrix(0.010850694444444444,0,0,0.010850694444444444,41.25434027777777,0)" xlink:href="#aD"/><use transform="matrix(0.010850694444444444,0,0,0.010850694444444444,49.47916666666666,0)" xlink:href="#ap"/><use transform="matrix(0.010850694444444444,0,0,0.010850694444444444,54.8611111111111,0)" xlink:href="#aN"/><use transform="matrix(0.010850694444444444,0,0,0.010850694444444444,67.77343749999999,0)" xlink:href="#an"/><use transform="matrix(0.010850694444444444,0,0,0.010850694444444444,80.2517361111111,0)" xlink:href="#ao"/></g><path d="M677 24c-213 0-288-135-325-197h-20V0H158v-1490h180v551h14c37-59 106-193 324-193 279 0 474 222 474 576 0 356-194 580-473 580zm-27-161c209 0 317-186 317-421 0-232-105-413-317-413-206 0-314 166-314 413 0 249 111 421 314 421" id="aX"/><g id="E"><use transform="matrix(0.010850694444444444,0,0,0.010850694444444444,0,0)" xlink:href="#aC"/><use transform="matrix(0.010850694444444444,0,0,0.010850694444444444,13.606770833333332,0)" xlink:href="#ap"/><use transform="matrix(0.010850694444444444,0,0,0.010850694444444444,18.98871527777778,0)" xlink:href="#al"/><use transform="matrix(0.010850694444444444,0,0,0.010850694444444444,30.71831597222222,0)" xlink:href="#aH"/><use transform="matrix(0.010850694444444444,0,0,0.010850694444444444,44.32508680555556,0)" xlink:href="#aq"/><use transform="matrix(0.010850694444444444,0,0,0.010850694444444444,57.64973958333333,0)" xlink:href="#aF"/><use transform="matrix(0.010850694444444444,0,0,0.010850694444444444,70.77907986111111,0)" xlink:href="#ap"/><use transform="matrix(0.010850694444444444,0,0,0.010850694444444444,76.16102430555556,0)" xlink:href="#aX"/><use transform="matrix(0.010850694444444444,0,0,0.010850694444444444,89.76779513888889,0)" xlink:href="#ap"/><use transform="matrix(0.010850694444444444,0,0,0.010850694444444444,95.14973958333333,0)" xlink:href="#aE"/><use transform="matrix(0.010850694444444444,0,0,0.010850694444444444,100.53168402777777,0)" xlink:href="#ap"/><use transform="matrix(0.010850694444444444,0,0,0.010850694444444444,105.91362847222221,0)" xlink:href="#aC"/><use transform="matrix(0.010850694444444444,0,0,0.010850694444444444,119.52039930555556,0)" xlink:href="#an"/><use transform="matrix(0.010850694444444444,0,0,0.010850694444444444,131.99869791666666,0)" xlink:href="#aC"/></g><path d="M783 20c-382 0-661-292-661-764 0-473 279-766 661-766 302 0 548 182 601 489h-190c-42-204-217-313-411-313-268 0-476 208-476 590 0 381 209 588 476 588 195 0 369-110 411-313h190c-52 303-296 489-601 489" id="aY"/><g id="F"><use transform="matrix(0.010850694444444444,0,0,0.010850694444444444,0,0)" xlink:href="#aY"/><use transform="matrix(0.010850694444444444,0,0,0.010850694444444444,16.23263888888889,0)" xlink:href="#aq"/><use transform="matrix(0.010850694444444444,0,0,0.010850694444444444,29.557291666666664,0)" xlink:href="#aF"/><use transform="matrix(0.010850694444444444,0,0,0.010850694444444444,42.68663194444444,0)" xlink:href="#aD"/><use transform="matrix(0.010850694444444444,0,0,0.010850694444444444,50.91145833333333,0)" xlink:href="#ap"/><use transform="matrix(0.010850694444444444,0,0,0.010850694444444444,56.29340277777778,0)" xlink:href="#ao"/><use transform="matrix(0.010850694444444444,0,0,0.010850694444444444,65.00651041666666,0)" xlink:href="#aR"/><use transform="matrix(0.010850694444444444,0,0,0.010850694444444444,84.47265624999999,0)" xlink:href="#an"/><use transform="matrix(0.010850694444444444,0,0,0.010850694444444444,96.95095486111111,0)" xlink:href="#ao"/></g><g id="G"><use transform="matrix(0.010850694444444444,0,0,0.010850694444444444,0,0)" xlink:href="#au"/><use transform="matrix(0.010850694444444444,0,0,0.010850694444444444,16.57986111111111,0)" xlink:href="#am"/><use transform="matrix(0.010850694444444444,0,0,0.010850694444444444,29.720052083333332,0)" xlink:href="#an"/><use transform="matrix(0.010850694444444444,0,0,0.010850694444444444,42.19835069444444,0)" xlink:href="#ao"/><use transform="matrix(0.010850694444444444,0,0,0.010850694444444444,50.195312499999986,0)" xlink:href="#aC"/><use transform="matrix(0.010850694444444444,0,0,0.010850694444444444,63.80208333333333,0)" xlink:href="#an"/><use transform="matrix(0.010850694444444444,0,0,0.010850694444444444,76.28038194444444,0)" xlink:href="#ao"/></g><g id="H"><use transform="matrix(0.010850694444444444,0,0,0.010850694444444444,0,0)" xlink:href="#aF"/><use transform="matrix(0.010850694444444444,0,0,0.010850694444444444,13.129340277777777,0)" xlink:href="#am"/><use transform="matrix(0.010850694444444444,0,0,0.010850694444444444,26.26953125,0)" xlink:href="#aw"/><use transform="matrix(0.010850694444444444,0,0,0.010850694444444444,38.791232638888886,0)" xlink:href="#aG"/><use transform="matrix(0.010850694444444444,0,0,0.010850694444444444,50.846354166666664,0)" xlink:href="#aq"/><use transform="matrix(0.010850694444444444,0,0,0.010850694444444444,64.17100694444444,0)" xlink:href="#al"/></g><g id="I"><use transform="matrix(0.010850694444444444,0,0,0.010850694444444444,0,0)" xlink:href="#ao"/><use transform="matrix(0.010850694444444444,0,0,0.010850694444444444,7.996961805555555,0)" xlink:href="#aw"/><use transform="matrix(0.010850694444444444,0,0,0.010850694444444444,20.95269097222222,0)" xlink:href="#aL"/><use transform="matrix(0.010850694444444444,0,0,0.010850694444444444,34.58116319444444,0)" xlink:href="#ap"/><use transform="matrix(0.010850694444444444,0,0,0.010850694444444444,39.963107638888886,0)" xlink:href="#al"/><use transform="matrix(0.010850694444444444,0,0,0.010850694444444444,51.69270833333333,0)" xlink:href="#av"/><use transform="matrix(0.010850694444444444,0,0,0.010850694444444444,58.96267361111111,0)" xlink:href="#ao"/><use transform="matrix(0.010850694444444444,0,0,0.010850694444444444,66.95963541666666,0)" xlink:href="#aq"/><use transform="matrix(0.010850694444444444,0,0,0.010850694444444444,80.28428819444443,0)" xlink:href="#al"/></g><path d="M180 0v-1490h528c311 0 458 177 458 395 0 191-114 278-244 313v14c139 9 302 137 302 371 0 225-148 397-499 397H180zm190-168h350c232 0 321-102 321-231 0-149-120-277-311-277H370v508zm0-668h328c160 0 286-101 286-255 0-129-87-231-280-231H370v486" id="aZ"/><g id="J"><use transform="matrix(0.010850694444444444,0,0,0.010850694444444444,0,0)" xlink:href="#aZ"/><use transform="matrix(0.010850694444444444,0,0,0.010850694444444444,14.539930555555555,0)" xlink:href="#am"/><use transform="matrix(0.010850694444444444,0,0,0.010850694444444444,27.68012152777778,0)" xlink:href="#al"/><use transform="matrix(0.010850694444444444,0,0,0.010850694444444444,39.40972222222222,0)" xlink:href="#aN"/><use transform="matrix(0.010850694444444444,0,0,0.010850694444444444,52.32204861111111,0)" xlink:href="#an"/><use transform="matrix(0.010850694444444444,0,0,0.010850694444444444,64.80034722222221,0)" xlink:href="#ao"/></g><g id="K"><use transform="matrix(0.010850694444444444,0,0,0.010850694444444444,0,0)" xlink:href="#av"/><use transform="matrix(0.010850694444444444,0,0,0.010850694444444444,7.269965277777778,0)" xlink:href="#ap"/><use transform="matrix(0.010850694444444444,0,0,0.010850694444444444,12.651909722222221,0)" xlink:href="#aN"/><use transform="matrix(0.010850694444444444,0,0,0.010850694444444444,25.34722222222222,0)" xlink:href="#aO"/><use transform="matrix(0.010850694444444444,0,0,0.010850694444444444,37.044270833333336,0)" xlink:href="#aw"/><use transform="matrix(0.010850694444444444,0,0,0.010850694444444444,50,0)" xlink:href="#ao"/></g><g id="L"><use transform="matrix(0.010850694444444444,0,0,0.010850694444444444,0,0)" xlink:href="#aC"/><use transform="matrix(0.010850694444444444,0,0,0.010850694444444444,13.606770833333332,0)" xlink:href="#an"/><use transform="matrix(0.010850694444444444,0,0,0.010850694444444444,26.085069444444443,0)" xlink:href="#av"/><use transform="matrix(0.010850694444444444,0,0,0.010850694444444444,33.13802083333333,0)" xlink:href="#aq"/><use transform="matrix(0.010850694444444444,0,0,0.010850694444444444,46.46267361111111,0)" xlink:href="#al"/></g><g id="M"><use transform="matrix(0.010850694444444444,0,0,0.010850694444444444,0,0)" xlink:href="#aC"/><use transform="matrix(0.010850694444444444,0,0,0.010850694444444444,13.606770833333332,0)" xlink:href="#aw"/><use transform="matrix(0.010850694444444444,0,0,0.010850694444444444,26.5625,0)" xlink:href="#aE"/></g><g id="N"><use transform="matrix(0.010850694444444444,0,0,0.010850694444444444,0,0)" xlink:href="#av"/><use transform="matrix(0.010850694444444444,0,0,0.010850694444444444,7.269965277777778,0)" xlink:href="#ap"/><use transform="matrix(0.010850694444444444,0,0,0.010850694444444444,12.651909722222221,0)" xlink:href="#aN"/><use transform="matrix(0.010850694444444444,0,0,0.010850694444444444,25.34722222222222,0)" xlink:href="#aO"/><use transform="matrix(0.010850694444444444,0,0,0.010850694444444444,37.044270833333336,0)" xlink:href="#aw"/><use transform="matrix(0.010850694444444444,0,0,0.010850694444444444,50,0)" xlink:href="#av"/></g><g id="O"><use transform="matrix(0.010850694444444444,0,0,0.010850694444444444,0,0)" xlink:href="#ar"/><use transform="matrix(0.010850694444444444,0,0,0.010850694444444444,15.33203125,0)" xlink:href="#aE"/><use transform="matrix(0.010850694444444444,0,0,0.010850694444444444,20.713975694444443,0)" xlink:href="#aR"/><use transform="matrix(0.010850694444444444,0,0,0.010850694444444444,40.18012152777777,0)" xlink:href="#an"/><use transform="matrix(0.010850694444444444,0,0,0.010850694444444444,52.658420138888886,0)" xlink:href="#aN"/><use transform="matrix(0.010850694444444444,0,0,0.010850694444444444,65.35373263888889,0)" xlink:href="#aw"/><use transform="matrix(0.010850694444444444,0,0,0.010850694444444444,78.30946180555556,0)" xlink:href="#aF"/><use transform="matrix(0.010850694444444444,0,0,0.010850694444444444,91.43880208333333,0)" xlink:href="#an"/><use transform="matrix(0.010850694444444444,0,0,0.010850694444444444,103.91710069444444,0)" xlink:href="#ao"/></g><g id="P"><use transform="matrix(0.010850694444444444,0,0,0.010850694444444444,0,0)" xlink:href="#aN"/><use transform="matrix(0.010850694444444444,0,0,0.010850694444444444,12.6953125,0)" xlink:href="#aq"/><use transform="matrix(0.010850694444444444,0,0,0.010850694444444444,26.01996527777778,0)" xlink:href="#aF"/><use transform="matrix(0.010850694444444444,0,0,0.010850694444444444,39.14930555555556,0)" xlink:href="#av"/><use transform="matrix(0.010850694444444444,0,0,0.010850694444444444,46.20225694444445,0)" xlink:href="#aw"/><use transform="matrix(0.010850694444444444,0,0,0.010850694444444444,59.15798611111112,0)" xlink:href="#aF"/><use transform="matrix(0.010850694444444444,0,0,0.010850694444444444,72.28732638888889,0)" xlink:href="#ap"/><use transform="matrix(0.010850694444444444,0,0,0.010850694444444444,77.66927083333333,0)" xlink:href="#aC"/><use transform="matrix(0.010850694444444444,0,0,0.010850694444444444,91.27604166666666,0)" xlink:href="#aq"/></g><g id="Q"><use transform="matrix(0.010850694444444444,0,0,0.010850694444444444,0,0)" xlink:href="#aw"/><use transform="matrix(0.010850694444444444,0,0,0.010850694444444444,12.955729166666666,0)" xlink:href="#al"/><use transform="matrix(0.010850694444444444,0,0,0.010850694444444444,24.68532986111111,0)" xlink:href="#av"/><use transform="matrix(0.010850694444444444,0,0,0.010850694444444444,32.06380208333333,0)" xlink:href="#an"/><use transform="matrix(0.010850694444444444,0,0,0.010850694444444444,44.54210069444444,0)" xlink:href="#av"/><use transform="matrix(0.010850694444444444,0,0,0.010850694444444444,51.81206597222222,0)" xlink:href="#ap"/><use transform="matrix(0.010850694444444444,0,0,0.010850694444444444,57.194010416666664,0)" xlink:href="#aN"/><use transform="matrix(0.010850694444444444,0,0,0.010850694444444444,69.88932291666666,0)" xlink:href="#aq"/></g><g id="R"><use transform="matrix(0.010850694444444444,0,0,0.010850694444444444,0,0)" xlink:href="#az"/><use transform="matrix(0.010850694444444444,0,0,0.010850694444444444,13.35720486111111,0)" xlink:href="#aF"/><use transform="matrix(0.010850694444444444,0,0,0.010850694444444444,26.48654513888889,0)" xlink:href="#av"/><use transform="matrix(0.010850694444444444,0,0,0.010850694444444444,33.756510416666664,0)" xlink:href="#ao"/><use transform="matrix(0.010850694444444444,0,0,0.010850694444444444,41.753472222222214,0)" xlink:href="#aw"/><use transform="matrix(0.010850694444444444,0,0,0.010850694444444444,54.70920138888888,0)" xlink:href="#aL"/><use transform="matrix(0.010850694444444444,0,0,0.010850694444444444,68.3376736111111,0)" xlink:href="#an"/><use transform="matrix(0.010850694444444444,0,0,0.010850694444444444,80.81597222222221,0)" xlink:href="#ao"/></g><path d="M798-719v166H144v-166h654" id="ba"/><g id="S"><use transform="matrix(0.010850694444444444,0,0,0.010850694444444444,0,0)" xlink:href="#aV"/><use transform="matrix(0.010850694444444444,0,0,0.010850694444444444,12.565104166666666,0)" xlink:href="#an"/><use transform="matrix(0.010850694444444444,0,0,0.010850694444444444,25.04340277777778,0)" xlink:href="#aR"/><use transform="matrix(0.010850694444444444,0,0,0.010850694444444444,44.50954861111111,0)" xlink:href="#aX"/><use transform="matrix(0.010850694444444444,0,0,0.010850694444444444,58.11631944444444,0)" xlink:href="#aC"/><use transform="matrix(0.010850694444444444,0,0,0.010850694444444444,71.72309027777777,0)" xlink:href="#an"/><use transform="matrix(0.010850694444444444,0,0,0.010850694444444444,84.20138888888889,0)" xlink:href="#ba"/><use transform="matrix(0.010850694444444444,0,0,0.010850694444444444,94.42274305555556,0)" xlink:href="#aq"/><use transform="matrix(0.010850694444444444,0,0,0.010850694444444444,107.74739583333333,0)" xlink:href="#aX"/><use transform="matrix(0.010850694444444444,0,0,0.010850694444444444,121.35416666666666,0)" xlink:href="#av"/><use transform="matrix(0.010850694444444444,0,0,0.010850694444444444,128.40711805555554,0)" xlink:href="#aw"/><use transform="matrix(0.010850694444444444,0,0,0.010850694444444444,141.3628472222222,0)" xlink:href="#aF"/><use transform="matrix(0.010850694444444444,0,0,0.010850694444444444,154.49218749999997,0)" xlink:href="#aw"/><use transform="matrix(0.010850694444444444,0,0,0.010850694444444444,167.44791666666663,0)" xlink:href="#ao"/></g><g id="T"><use transform="matrix(0.010850694444444444,0,0,0.010850694444444444,0,0)" xlink:href="#ar"/><use transform="matrix(0.010850694444444444,0,0,0.010850694444444444,15.33203125,0)" xlink:href="#al"/><use transform="matrix(0.010850694444444444,0,0,0.010850694444444444,27.061631944444443,0)" xlink:href="#ap"/><use transform="matrix(0.010850694444444444,0,0,0.010850694444444444,32.443576388888886,0)" xlink:href="#aw"/><use transform="matrix(0.010850694444444444,0,0,0.010850694444444444,45.39930555555556,0)" xlink:href="#aF"/><use transform="matrix(0.010850694444444444,0,0,0.010850694444444444,58.52864583333333,0)" xlink:href="#av"/><use transform="matrix(0.010850694444444444,0,0,0.010850694444444444,65.58159722222221,0)" xlink:href="#aq"/><use transform="matrix(0.010850694444444444,0,0,0.010850694444444444,78.90624999999999,0)" xlink:href="#al"/></g><g id="U"><use transform="matrix(0.010850694444444444,0,0,0.010850694444444444,0,0)" xlink:href="#aV"/><use transform="matrix(0.010850694444444444,0,0,0.010850694444444444,12.565104166666666,0)" xlink:href="#an"/><use transform="matrix(0.010850694444444444,0,0,0.010850694444444444,25.04340277777778,0)" xlink:href="#aR"/><use transform="matrix(0.010850694444444444,0,0,0.010850694444444444,44.50954861111111,0)" xlink:href="#aX"/><use transform="matrix(0.010850694444444444,0,0,0.010850694444444444,58.11631944444444,0)" xlink:href="#aC"/><use transform="matrix(0.010850694444444444,0,0,0.010850694444444444,71.72309027777777,0)" xlink:href="#an"/><use transform="matrix(0.010850694444444444,0,0,0.010850694444444444,84.20138888888889,0)" xlink:href="#ba"/><use transform="matrix(0.010850694444444444,0,0,0.010850694444444444,94.42274305555556,0)" xlink:href="#aq"/><use transform="matrix(0.010850694444444444,0,0,0.010850694444444444,107.74739583333333,0)" xlink:href="#aX"/><use transform="matrix(0.010850694444444444,0,0,0.010850694444444444,121.35416666666666,0)" xlink:href="#av"/><use transform="matrix(0.010850694444444444,0,0,0.010850694444444444,128.40711805555554,0)" xlink:href="#aw"/><use transform="matrix(0.010850694444444444,0,0,0.010850694444444444,141.3628472222222,0)" xlink:href="#aF"/><use transform="matrix(0.010850694444444444,0,0,0.010850694444444444,154.49218749999997,0)" xlink:href="#aw"/><use transform="matrix(0.010850694444444444,0,0,0.010850694444444444,167.44791666666663,0)" xlink:href="#ao"/></g><g id="V"><use transform="matrix(0.010850694444444444,0,0,0.010850694444444444,0,0)" xlink:href="#ar"/><use transform="matrix(0.010850694444444444,0,0,0.010850694444444444,15.33203125,0)" xlink:href="#al"/><use transform="matrix(0.010850694444444444,0,0,0.010850694444444444,27.061631944444443,0)" xlink:href="#ap"/><use transform="matrix(0.010850694444444444,0,0,0.010850694444444444,32.443576388888886,0)" xlink:href="#aw"/><use transform="matrix(0.010850694444444444,0,0,0.010850694444444444,45.39930555555556,0)" xlink:href="#aF"/><use transform="matrix(0.010850694444444444,0,0,0.010850694444444444,58.52864583333333,0)" xlink:href="#av"/><use transform="matrix(0.010850694444444444,0,0,0.010850694444444444,65.58159722222221,0)" xlink:href="#aq"/><use transform="matrix(0.010850694444444444,0,0,0.010850694444444444,78.90624999999999,0)" xlink:href="#al"/></g><g id="W"><use transform="matrix(0.010850694444444444,0,0,0.010850694444444444,0,0)" xlink:href="#aU"/><use transform="matrix(0.010850694444444444,0,0,0.010850694444444444,13.975694444444445,0)" xlink:href="#aw"/><use transform="matrix(0.010850694444444444,0,0,0.010850694444444444,26.931423611111104,0)" xlink:href="#aL"/><use transform="matrix(0.010850694444444444,0,0,0.010850694444444444,40.55989583333333,0)" xlink:href="#ap"/><use transform="matrix(0.010850694444444444,0,0,0.010850694444444444,45.94184027777778,0)" xlink:href="#al"/><use transform="matrix(0.010850694444444444,0,0,0.010850694444444444,57.67144097222221,0)" xlink:href="#av"/><use transform="matrix(0.010850694444444444,0,0,0.010850694444444444,64.94140624999999,0)" xlink:href="#ao"/><use transform="matrix(0.010850694444444444,0,0,0.010850694444444444,73.30729166666666,0)" xlink:href="#an"/><use transform="matrix(0.010850694444444444,0,0,0.010850694444444444,85.78559027777777,0)" xlink:href="#ao"/></g><g id="X"><use transform="matrix(0.010850694444444444,0,0,0.010850694444444444,6.25,0)" xlink:href="#aI"/><use transform="matrix(0.010850694444444444,0,0,0.010850694444444444,23.2421875,0)" xlink:href="#aX"/><use transform="matrix(0.010850694444444444,0,0,0.010850694444444444,36.84895833333333,0)" xlink:href="#av"/><use transform="matrix(0.010850694444444444,0,0,0.010850694444444444,43.90190972222222,0)" xlink:href="#aw"/><use transform="matrix(0.010850694444444444,0,0,0.010850694444444444,56.857638888888886,0)" xlink:href="#aF"/><use transform="matrix(0.010850694444444444,0,0,0.010850694444444444,69.98697916666666,0)" xlink:href="#aw"/><use transform="matrix(0.010850694444444444,0,0,0.010850694444444444,82.94270833333333,0)" xlink:href="#ao"/></g><g id="Y"><use transform="matrix(0.010850694444444444,0,0,0.010850694444444444,0,0)" xlink:href="#aA"/><use transform="matrix(0.010850694444444444,0,0,0.010850694444444444,14.344618055555555,0)" xlink:href="#ap"/><use transform="matrix(0.010850694444444444,0,0,0.010850694444444444,19.7265625,0)" xlink:href="#aN"/><use transform="matrix(0.010850694444444444,0,0,0.010850694444444444,32.421875,0)" xlink:href="#aO"/><use transform="matrix(0.010850694444444444,0,0,0.010850694444444444,44.118923611111114,0)" xlink:href="#aw"/><use transform="matrix(0.010850694444444444,0,0,0.010850694444444444,57.07465277777778,0)" xlink:href="#av"/></g><g id="Z"><use transform="matrix(0.010850694444444444,0,0,0.010850694444444444,6.25,0)" xlink:href="#aI"/><use transform="matrix(0.010850694444444444,0,0,0.010850694444444444,23.2421875,0)" xlink:href="#aX"/><use transform="matrix(0.010850694444444444,0,0,0.010850694444444444,36.84895833333333,0)" xlink:href="#av"/><use transform="matrix(0.010850694444444444,0,0,0.010850694444444444,43.90190972222222,0)" xlink:href="#aw"/><use transform="matrix(0.010850694444444444,0,0,0.010850694444444444,56.857638888888886,0)" xlink:href="#aF"/><use transform="matrix(0.010850694444444444,0,0,0.010850694444444444,69.98697916666666,0)" xlink:href="#aw"/><use transform="matrix(0.010850694444444444,0,0,0.010850694444444444,82.94270833333333,0)" xlink:href="#ao"/></g><g id="aa"><use transform="matrix(0.010850694444444444,0,0,0.010850694444444444,0,0)" xlink:href="#aA"/><use transform="matrix(0.010850694444444444,0,0,0.010850694444444444,14.344618055555555,0)" xlink:href="#ap"/><use transform="matrix(0.010850694444444444,0,0,0.010850694444444444,19.7265625,0)" xlink:href="#aN"/><use transform="matrix(0.010850694444444444,0,0,0.010850694444444444,32.421875,0)" xlink:href="#aO"/><use transform="matrix(0.010850694444444444,0,0,0.010850694444444444,44.118923611111114,0)" xlink:href="#aw"/><use transform="matrix(0.010850694444444444,0,0,0.010850694444444444,57.07465277777778,0)" xlink:href="#av"/></g><path d="M635 20c-292 0-500-160-510-396h192c11 142 145 229 315 229 187 0 323-105 323-260 0-161-125-274-346-274H488v-165h121c174 0 294-100 294-254 0-148-104-245-266-245-152 0-291 85-297 230H157c8-234 222-395 484-395 278 0 448 188 448 400 0 168-95 291-247 336v12c190 31 301 169 301 357 0 244-216 425-508 425" id="bb"/><path d="M645 0H180v-1490h484c435 0 692 280 692 742 0 466-257 748-711 748zM370-168h263c363 0 539-218 539-580 0-358-176-574-521-574H370v1154" id="bc"/><g id="ab"><use transform="matrix(0.010850694444444444,0,0,0.010850694444444444,0,0)" xlink:href="#aJ"/><use transform="matrix(0.010850694444444444,0,0,0.010850694444444444,14.2578125,0)" xlink:href="#bb"/><use transform="matrix(0.010850694444444444,0,0,0.010850694444444444,27.98394097222222,0)" xlink:href="#ba"/><use transform="matrix(0.010850694444444444,0,0,0.010850694444444444,38.205295138888886,0)" xlink:href="#bc"/><use transform="matrix(0.010850694444444444,0,0,0.010850694444444444,54.24262152777778,0)" xlink:href="#an"/><use transform="matrix(0.010850694444444444,0,0,0.010850694444444444,66.72092013888889,0)" xlink:href="#av"/><use transform="matrix(0.010850694444444444,0,0,0.010850694444444444,73.77387152777777,0)" xlink:href="#aq"/><use transform="matrix(0.010850694444444444,0,0,0.010850694444444444,87.09852430555554,0)" xlink:href="#al"/></g><g id="ac"><use transform="matrix(0.010850694444444444,0,0,0.010850694444444444,0,0)" xlink:href="#aC"/><use transform="matrix(0.010850694444444444,0,0,0.010850694444444444,13.606770833333332,0)" xlink:href="#aw"/></g><g id="ad"><use transform="matrix(0.010850694444444444,0,0,0.010850694444444444,0,0)" xlink:href="#aX"/><use transform="matrix(0.010850694444444444,0,0,0.010850694444444444,13.606770833333332,0)" xlink:href="#aq"/><use transform="matrix(0.010850694444444444,0,0,0.010850694444444444,26.931423611111104,0)" xlink:href="#aE"/><use transform="matrix(0.010850694444444444,0,0,0.010850694444444444,32.31336805555555,0)" xlink:href="#aw"/><use transform="matrix(0.010850694444444444,0,0,0.010850694444444444,45.26909722222221,0)" xlink:href="#av"/><use transform="matrix(0.010850694444444444,0,0,0.010850694444444444,52.32204861111111,0)" xlink:href="#aq"/><use transform="matrix(0.010850694444444444,0,0,0.010850694444444444,65.64670138888889,0)" xlink:href="#al"/></g><g id="ae"><use transform="matrix(0.010850694444444444,0,0,0.010850694444444444,0,0)" xlink:href="#aJ"/><use transform="matrix(0.010850694444444444,0,0,0.010850694444444444,14.2578125,0)" xlink:href="#bb"/><use transform="matrix(0.010850694444444444,0,0,0.010850694444444444,27.98394097222222,0)" xlink:href="#ba"/><use transform="matrix(0.010850694444444444,0,0,0.010850694444444444,38.205295138888886,0)" xlink:href="#bc"/><use transform="matrix(0.010850694444444444,0,0,0.010850694444444444,54.24262152777778,0)" xlink:href="#an"/><use transform="matrix(0.010850694444444444,0,0,0.010850694444444444,66.72092013888889,0)" xlink:href="#av"/><use transform="matrix(0.010850694444444444,0,0,0.010850694444444444,73.77387152777777,0)" xlink:href="#aq"/><use transform="matrix(0.010850694444444444,0,0,0.010850694444444444,87.09852430555554,0)" xlink:href="#al"/></g><g id="af"><use transform="matrix(0.010850694444444444,0,0,0.010850694444444444,0,0)" xlink:href="#aC"/><use transform="matrix(0.010850694444444444,0,0,0.010850694444444444,13.606770833333332,0)" xlink:href="#aw"/></g><g id="ag"><use transform="matrix(0.010850694444444444,0,0,0.010850694444444444,0,0)" xlink:href="#aX"/><use transform="matrix(0.010850694444444444,0,0,0.010850694444444444,13.606770833333332,0)" xlink:href="#aq"/><use transform="matrix(0.010850694444444444,0,0,0.010850694444444444,26.931423611111104,0)" xlink:href="#aE"/><use transform="matrix(0.010850694444444444,0,0,0.010850694444444444,32.31336805555555,0)" xlink:href="#aw"/><use transform="matrix(0.010850694444444444,0,0,0.010850694444444444,45.26909722222221,0)" xlink:href="#av"/><use transform="matrix(0.010850694444444444,0,0,0.010850694444444444,52.32204861111111,0)" xlink:href="#aq"/><use transform="matrix(0.010850694444444444,0,0,0.010850694444444444,65.64670138888889,0)" xlink:href="#al"/></g><path d="M180 0v-1490h901v168H370v510h643v168H370V0H180" id="bd"/><g id="ah"><use transform="matrix(0.010850694444444444,0,0,0.010850694444444444,0,0)" xlink:href="#aJ"/><use transform="matrix(0.010850694444444444,0,0,0.010850694444444444,14.2578125,0)" xlink:href="#bb"/><use transform="matrix(0.010850694444444444,0,0,0.010850694444444444,27.98394097222222,0)" xlink:href="#ba"/><use transform="matrix(0.010850694444444444,0,0,0.010850694444444444,38.205295138888886,0)" xlink:href="#aN"/><use transform="matrix(0.010850694444444444,0,0,0.010850694444444444,50.900607638888886,0)" xlink:href="#aY"/><use transform="matrix(0.010850694444444444,0,0,0.010850694444444444,67.13324652777777,0)" xlink:href="#aE"/><use transform="matrix(0.010850694444444444,0,0,0.010850694444444444,72.51519097222221,0)" xlink:href="#aq"/><use transform="matrix(0.010850694444444444,0,0,0.010850694444444444,85.83984374999999,0)" xlink:href="#am"/><use transform="matrix(0.010850694444444444,0,0,0.010850694444444444,98.9800347222222,0)" xlink:href="#aC"/><use transform="matrix(0.010850694444444444,0,0,0.010850694444444444,112.58680555555553,0)" xlink:href="#bd"/><use transform="matrix(0.010850694444444444,0,0,0.010850694444444444,125.05425347222217,0)" xlink:href="#ao"/><use transform="matrix(0.010850694444444444,0,0,0.010850694444444444,133.05121527777774,0)" xlink:href="#aq"/><use transform="matrix(0.010850694444444444,0,0,0.010850694444444444,146.37586805555551,0)" xlink:href="#aF"/><use transform="matrix(0.010850694444444444,0,0,0.010850694444444444,159.5052083333333,0)" xlink:href="#av"/><use transform="matrix(0.010850694444444444,0,0,0.010850694444444444,166.3411458333333,0)" xlink:href="#ba"/><use transform="matrix(0.010850694444444444,0,0,0.010850694444444444,176.56249999999994,0)" xlink:href="#aJ"/><use transform="matrix(0.010850694444444444,0,0,0.010850694444444444,190.82031249999994,0)" xlink:href="#av"/><use transform="matrix(0.010850694444444444,0,0,0.010850694444444444,197.87326388888883,0)" xlink:href="#aq"/><use transform="matrix(0.010850694444444444,0,0,0.010850694444444444,211.19791666666663,0)" xlink:href="#ao"/><use transform="matrix(0.010850694444444444,0,0,0.010850694444444444,219.56380208333326,0)" xlink:href="#an"/><use transform="matrix(0.010850694444444444,0,0,0.010850694444444444,232.04210069444434,0)" xlink:href="#aL"/><use transform="matrix(0.010850694444444444,0,0,0.010850694444444444,245.67057291666663,0)" xlink:href="#aw"/></g><g id="ai"><use transform="matrix(0.010850694444444444,0,0,0.010850694444444444,0,0)" xlink:href="#aJ"/><use transform="matrix(0.010850694444444444,0,0,0.010850694444444444,14.2578125,0)" xlink:href="#bb"/><use transform="matrix(0.010850694444444444,0,0,0.010850694444444444,27.98394097222222,0)" xlink:href="#ba"/><use transform="matrix(0.010850694444444444,0,0,0.010850694444444444,38.205295138888886,0)" xlink:href="#aN"/><use transform="matrix(0.010850694444444444,0,0,0.010850694444444444,50.900607638888886,0)" xlink:href="#aY"/><use transform="matrix(0.010850694444444444,0,0,0.010850694444444444,67.13324652777777,0)" xlink:href="#aE"/><use transform="matrix(0.010850694444444444,0,0,0.010850694444444444,72.51519097222221,0)" xlink:href="#aq"/><use transform="matrix(0.010850694444444444,0,0,0.010850694444444444,85.83984374999999,0)" xlink:href="#am"/><use transform="matrix(0.010850694444444444,0,0,0.010850694444444444,98.9800347222222,0)" xlink:href="#aC"/><use transform="matrix(0.010850694444444444,0,0,0.010850694444444444,112.58680555555553,0)" xlink:href="#bd"/><use transform="matrix(0.010850694444444444,0,0,0.010850694444444444,125.05425347222217,0)" xlink:href="#ao"/><use transform="matrix(0.010850694444444444,0,0,0.010850694444444444,133.05121527777774,0)" xlink:href="#aq"/><use transform="matrix(0.010850694444444444,0,0,0.010850694444444444,146.37586805555551,0)" xlink:href="#aF"/><use transform="matrix(0.010850694444444444,0,0,0.010850694444444444,159.5052083333333,0)" xlink:href="#av"/><use transform="matrix(0.010850694444444444,0,0,0.010850694444444444,166.3411458333333,0)" xlink:href="#ba"/><use transform="matrix(0.010850694444444444,0,0,0.010850694444444444,176.56249999999994,0)" xlink:href="#aJ"/><use transform="matrix(0.010850694444444444,0,0,0.010850694444444444,190.82031249999994,0)" xlink:href="#av"/><use transform="matrix(0.010850694444444444,0,0,0.010850694444444444,197.87326388888883,0)" xlink:href="#aq"/><use transform="matrix(0.010850694444444444,0,0,0.010850694444444444,211.19791666666663,0)" xlink:href="#ao"/><use transform="matrix(0.010850694444444444,0,0,0.010850694444444444,219.56380208333326,0)" xlink:href="#an"/><use transform="matrix(0.010850694444444444,0,0,0.010850694444444444,232.04210069444434,0)" xlink:href="#aL"/><use transform="matrix(0.010850694444444444,0,0,0.010850694444444444,245.67057291666663,0)" xlink:href="#aw"/></g><path d="M180 0v-1490h224l606 953c40 63 108 177 176 312-27-437-7-821-13-1265h190V0h-226C860-448 622-778 356-1262c27 476 11 792 15 1262H180" id="be"/><g id="aj"><use transform="matrix(0.010850694444444444,0,0,0.010850694444444444,0,0)" xlink:href="#aY"/><use transform="matrix(0.010850694444444444,0,0,0.010850694444444444,16.23263888888889,0)" xlink:href="#aE"/><use transform="matrix(0.010850694444444444,0,0,0.010850694444444444,21.614583333333336,0)" xlink:href="#aq"/><use transform="matrix(0.010850694444444444,0,0,0.010850694444444444,34.939236111111114,0)" xlink:href="#am"/><use transform="matrix(0.010850694444444444,0,0,0.010850694444444444,48.07942708333333,0)" xlink:href="#aC"/><use transform="matrix(0.010850694444444444,0,0,0.010850694444444444,61.68619791666667,0)" xlink:href="#bd"/><use transform="matrix(0.010850694444444444,0,0,0.010850694444444444,74.15364583333334,0)" xlink:href="#ao"/><use transform="matrix(0.010850694444444444,0,0,0.010850694444444444,82.1506076388889,0)" xlink:href="#aq"/><use transform="matrix(0.010850694444444444,0,0,0.010850694444444444,95.47526041666666,0)" xlink:href="#aF"/><use transform="matrix(0.010850694444444444,0,0,0.010850694444444444,108.60460069444444,0)" xlink:href="#av"/><use transform="matrix(0.010850694444444444,0,0,0.010850694444444444,115.44053819444444,0)" xlink:href="#ba"/><use transform="matrix(0.010850694444444444,0,0,0.010850694444444444,125.6618923611111,0)" xlink:href="#aY"/><use transform="matrix(0.010850694444444444,0,0,0.010850694444444444,141.89453125,0)" xlink:href="#bc"/><use transform="matrix(0.010850694444444444,0,0,0.010850694444444444,157.93185763888889,0)" xlink:href="#be"/></g></defs></g></svg>